<?xml version="1.0" standalone="no"?>
<!DOCTYPE svg PUBLIC "-//W3C//DTD SVG 1.1//EN" "http://www.w3.org/Graphics/SVG/1.1/DTD/svg11.dtd" >
<svg xmlns="http://www.w3.org/2000/svg" xmlns:xlink="http://www.w3.org/1999/xlink" version="1.1">
<metadata></metadata>
<defs>
<font id="regular_proextrabold_italic" horiz-adv-x="1181" >
<font-face units-per-em="2048" ascent="1536" descent="-512" />
<missing-glyph horiz-adv-x="409" />
<glyph horiz-adv-x="0" />
<glyph horiz-adv-x="682" />
<glyph unicode=" "  horiz-adv-x="409" />
<glyph unicode="&#x09;" horiz-adv-x="409" />
<glyph unicode="&#xa0;" horiz-adv-x="409" />
<glyph unicode="!" horiz-adv-x="608" d="M61 180q0 86 60 146.5t145 60.5q86 0 146.5 -60.5t60.5 -146.5q0 -85 -60.5 -145t-146.5 -60q-85 0 -145 60t-60 145zM147 465l138 969h366l-192 -969h-312z" />
<glyph unicode="&#x22;" horiz-adv-x="1028" d="M182 842l103 592h344l-103 -592h-344zM631 842l102 592h344l-102 -592h-344z" />
<glyph unicode="#" horiz-adv-x="1150" d="M76 430l45 246h176l29 164h-176l40 245h179l49 295h254l-51 -295h120l50 295h253l-51 -295h181l-44 -245h-178l-28 -164h178l-43 -246h-180l-50 -297h-254l52 297h-121l-49 -297h-254l51 297h-178zM551 676h121l26 164h-120z" />
<glyph unicode="$" horiz-adv-x="1216" d="M27 244l209 233q103 -119 227 -172l88 297l-94 53q-125 70 -187.5 166.5t-62.5 202.5q0 193 139.5 313.5t360.5 120.5q52 0 96 -8l43 147h162l-56 -186q178 -70 283 -197l-217 -221q-71 86 -154 125l-78 -262l39 -22q167 -98 235 -187.5t68 -232.5q0 -78 -32.5 -154 t-93.5 -140.5t-162.5 -104.5t-227.5 -40q-35 0 -86 7l-49 -172h-162l60 202q-118 37 -207.5 102.5t-140.5 129.5zM569 1044q0 -30 15.5 -54t64.5 -54l66 219q-69 0 -107.5 -34.5t-38.5 -76.5zM614 276q65 4 105.5 40.5t40.5 86.5q0 66 -72 117z" />
<glyph unicode="%" horiz-adv-x="1589" d="M172 330l1202 921l121 -151l-1208 -930zM184 1114q0 143 103.5 243.5t251.5 100.5q145 0 248.5 -101t103.5 -243t-103.5 -244t-248.5 -102q-147 0 -251 101.5t-104 244.5zM430 1114q0 -50 32 -84.5t77 -34.5q43 0 74.5 34.5t31.5 84.5q0 49 -31.5 84t-74.5 35 q-45 0 -77 -35t-32 -84zM784 319q0 142 104 243.5t251 101.5t250.5 -101.5t103.5 -243.5q0 -143 -103.5 -243.5t-250.5 -100.5q-148 0 -251.5 100.5t-103.5 243.5zM1030 319q0 -50 32.5 -84t76.5 -34q41 0 74.5 34.5t33.5 83.5t-33.5 84t-74.5 35q-44 0 -76.5 -34.5 t-32.5 -84.5z" />
<glyph unicode="&#x26;" horiz-adv-x="1370" d="M45 369q0 130 78 241t217 189q-96 115 -96 272q0 49 16 101t50.5 103.5t84 92t123 65.5t160.5 25q176 0 294 -96.5t118 -233.5q0 -103 -46 -184l-296 17q30 49 30 102q0 42 -26 70t-72 28q-48 0 -77.5 -30.5t-29.5 -83.5q0 -26 12.5 -55.5t24 -45t33.5 -43.5l211 -274 q30 44 102 180h404q-60 -108 -145.5 -231t-155.5 -211l231 -293l-12 -74h-350l-92 125q-72 -76 -160 -113t-205 -37q-182 0 -304 113t-122 281zM389 393q0 -46 36 -80t85 -34q83 0 141 86l-145 190q-117 -68 -117 -162z" />
<glyph unicode="'" horiz-adv-x="579" d="M182 842l103 592h344l-103 -592h-344z" />
<glyph unicode="(" horiz-adv-x="710" d="M86 614q77 444 463 820h301l-6 -33q-151 -148 -269 -371.5t-157 -445.5q-36 -229 -2 -459t121 -399l-7 -33h-260q-122 209 -172.5 448.5t-11.5 472.5z" />
<glyph unicode=")" horiz-adv-x="708" d="M-111 -307l7 33q151 148 269 371.5t157 445.5q36 229 2 459t-121 399l6 33h260q122 -209 172.5 -449t11.5 -473q-77 -442 -463 -819h-301z" />
<glyph unicode="*" horiz-adv-x="1079" d="M143 879q26 148 244 129q-105 29 -151 76.5t-33 127.5q10 61 61 92t105 21q65 -10 163 -125q-4 103 3 135q12 61 60 94t112 21q62 -10 96.5 -58.5t23.5 -107.5q-5 -39 -45 -127q125 68 199 60q54 -6 90.5 -54.5t26.5 -111.5q-25 -144 -244 -125q209 -58 184 -205 q-10 -61 -61 -92t-105 -21q-65 10 -163 125q4 -107 -2 -135q-11 -61 -59.5 -94t-112.5 -21q-62 10 -97 58.5t-24 107.5q5 39 45 127q-131 -72 -199 -59q-51 8 -89 54.5t-28 107.5zM487 989q-9 -54 23.5 -100t87.5 -55t101 23t55 87q9 54 -23.5 100.5t-87.5 55.5 q-54 9 -100.5 -23.5t-55.5 -87.5z" />
<glyph unicode="+" horiz-adv-x="1064" d="M96 580l51 301h297l56 307h319l-55 -307h297l-51 -301h-297l-56 -308h-319l55 308h-297z" />
<glyph unicode="," horiz-adv-x="587" d="M-86 -215l176 258q-53 59 -53 139q0 82 59 143.5t146 61.5q92 0 153.5 -62.5t61.5 -146.5q0 -31 -13.5 -71.5t-37.5 -71.5l-232 -295z" />
<glyph unicode="-" horiz-adv-x="512" d="M-51 354l55 314h567l-55 -314h-567z" />
<glyph unicode="." horiz-adv-x="579" d="M37 180q0 86 60 146.5t145 60.5q86 0 146.5 -60.5t60.5 -146.5q0 -85 -60.5 -145t-146.5 -60q-85 0 -145 60t-60 145z" />
<glyph unicode="/" horiz-adv-x="897" d="M-18 0l723 1434h296l-727 -1434h-292z" />
<glyph unicode="0" horiz-adv-x="1146" d="M90 545q0 102 21 219q56 330 213 512t364 182q114 0 202.5 -44t143 -122t82 -179t27.5 -220q0 -105 -21 -219q-60 -334 -216.5 -516.5t-360.5 -182.5q-209 0 -332 146t-123 424zM430 524q0 -106 31 -157.5t98 -51.5q76 0 133 102t90 288q21 120 21 210q0 106 -31 157.5 t-98 51.5q-157 0 -223 -391q-21 -123 -21 -209z" />
<glyph unicode="1" horiz-adv-x="1146" d="M76 0l51 305h266l152 823h-248l55 306h596l-205 -1129h267l-54 -305h-880z" />
<glyph unicode="2" horiz-adv-x="1146" d="M4 0l64 326q387 265 505 354q136 103 187 178t51 156q0 57 -39 96t-108 39q-67 0 -110.5 -45t-43.5 -119q0 -45 12 -94l-323 -33q-27 93 -27 156q0 84 31.5 161.5t91 141.5t157.5 102.5t220 38.5q101 0 184.5 -25t139.5 -66.5t95 -96.5t56.5 -114.5t17.5 -121.5 q0 -67 -19 -130t-42.5 -111.5t-75.5 -104.5t-87 -89t-110.5 -86.5t-112 -76.5t-122.5 -77q-18 -11 -27 -17l-49 -31h510l-57 -311h-969z" />
<glyph unicode="3" horiz-adv-x="1146" d="M55 373q0 34 8 108h359q-12 -47 -12 -78q0 -58 27.5 -96.5t92.5 -38.5q71 0 113.5 50.5t42.5 140.5q0 85 -59.5 123.5t-149.5 38.5q-74 0 -141 -13l63 322l330 198h-487l53 306h903l-61 -342l-435 -256q85 -1 162 -42t128.5 -121t51.5 -181q0 -233 -141 -375t-368 -142 q-235 0 -357.5 109.5t-122.5 288.5z" />
<glyph unicode="4" horiz-adv-x="1146" d="M0 324l51 299l651 811h418l-149 -816h162l-56 -294h-157l-60 -324h-340l58 324h-578zM379 618h252l82 424z" />
<glyph unicode="5" horiz-adv-x="1146" d="M74 379q0 57 8 102h354q-10 -59 -10 -94q0 -119 115 -119q77 0 120.5 72t43.5 182q0 65 -32 106.5t-98 41.5q-36 0 -71 -16t-58 -40l-276 68l139 752h852l-59 -314h-549l-37 -202l6 -3q56 33 150 33q185 0 289 -113.5t104 -297.5q0 -248 -137 -405t-369 -157 q-236 0 -360.5 111t-124.5 293z" />
<glyph unicode="6" horiz-adv-x="1146" d="M72 463q0 120 32 234.5t85 210.5t132.5 192t163.5 174t189 160h485q-462 -359 -633 -564l15 -6q21 15 66 28t98 13q77 0 148 -26t128 -74.5t91 -127t34 -175.5q0 -151 -71 -272.5t-190 -188t-261 -66.5q-159 0 -276.5 65t-176.5 175t-59 248zM418 428q2 -70 42 -114 t115 -44q81 0 132 63.5t49 149.5q0 71 -40.5 116.5t-115.5 45.5q-84 0 -134 -67t-48 -150z" />
<glyph unicode="7" horiz-adv-x="1146" d="M127 0l672 1120h-606l55 314h983l-55 -306l-625 -1128h-424z" />
<glyph unicode="8" horiz-adv-x="1146" d="M53 383q0 135 77 241t212 146q-77 41 -116.5 114t-39.5 158q0 177 138.5 296.5t347.5 119.5q218 0 347.5 -109.5t129.5 -271.5q0 -114 -66.5 -213t-189.5 -143q87 -43 132.5 -123.5t45.5 -177.5q0 -136 -69 -238.5t-183.5 -154.5t-257.5 -52q-78 0 -150.5 15t-138 47.5 t-114 79.5t-77 115.5t-28.5 150.5zM395 414q0 -63 44 -107.5t124 -44.5q79 0 130.5 49.5t51.5 124.5q0 63 -45 104.5t-127 41.5q-80 0 -129 -48.5t-49 -119.5zM514 997q0 -58 35.5 -96.5t105.5 -38.5q72 0 117 49t45 119q0 60 -36 98.5t-107 38.5q-70 0 -115 -49.5 t-45 -120.5z" />
<glyph unicode="9" horiz-adv-x="1146" d="M72 0q464 361 633 563l-15 6q-21 -15 -66 -28t-98 -13q-77 0 -148 26t-128 75t-91 127.5t-34 175.5q0 151 71 272.5t190 187.5t261 66q238 0 375 -137.5t137 -349.5q0 -120 -32 -234.5t-85 -210.5t-132.5 -192t-163.5 -174t-189 -160h-485zM475 950q0 -71 40.5 -116.5 t115.5 -45.5q84 0 134 67.5t48 150.5q-2 69 -42.5 113t-115.5 44q-81 0 -131.5 -63.5t-48.5 -149.5z" />
<glyph unicode=":" horiz-adv-x="608" d="M47 180q0 86 59.5 145.5t145.5 59.5q85 0 144 -59.5t59 -145.5t-59 -145.5t-144 -59.5q-86 0 -145.5 59.5t-59.5 145.5zM150 745q0 86 58.5 146.5t143.5 60.5q86 0 145.5 -60.5t59.5 -146.5q0 -85 -59.5 -144.5t-145.5 -59.5q-85 0 -143.5 59.5t-58.5 144.5z" />
<glyph unicode=";" horiz-adv-x="618" d="M-63 -215l176 258q-54 61 -54 139q0 82 59 143.5t146 61.5q92 0 153.5 -62.5t61.5 -146.5q0 -31 -13.5 -71.5t-37.5 -71.5l-231 -295zM141 745q0 86 59 146.5t144 60.5q87 0 147 -60t60 -147q0 -85 -60 -144.5t-147 -59.5q-85 0 -144 59.5t-59 144.5z" />
<glyph unicode="&#x3c;" horiz-adv-x="1437" d="M104 752l656 645l239 -213l-278 -293h690l-53 -322h-705l187 -293l-250 -213z" />
<glyph unicode="=" horiz-adv-x="1064" d="M55 365l54 301h913l-53 -301h-914zM131 795l53 301h914l-54 -301h-913z" />
<glyph unicode="&#x3e;" horiz-adv-x="1435" d="M115 569l53 322h704l-186 293l250 213l485 -688l-655 -646l-240 213l279 293h-690z" />
<glyph unicode="?" horiz-adv-x="1071" d="M164 993q3 98 31 177t73 132t106.5 88.5t128 51.5t140.5 16q203 0 327 -117.5t124 -298.5q0 -48 -9.5 -95t-34 -100t-63 -97.5t-101.5 -84t-143 -61.5l-57 -162h-311l67 377l47 6q127 17 185.5 72.5t58.5 124.5q0 50 -31.5 82.5t-83.5 32.5q-50 0 -81.5 -35t-38.5 -82 l-4 -27h-330zM307 180q0 86 60 146.5t145 60.5q86 0 146.5 -60.5t60.5 -146.5q0 -85 -60.5 -145t-146.5 -60q-85 0 -145 60t-60 145z" />
<glyph unicode="@" horiz-adv-x="1961" d="M82 406q0 178 52 334.5t145 274.5t218 203.5t275.5 129t312.5 43.5q166 0 315 -51t263 -143.5t181 -234.5t67 -313q0 -109 -21.5 -208t-65.5 -182.5t-106.5 -144.5t-150 -95.5t-191.5 -34.5q-211 0 -291 141q-29 -56 -96 -98.5t-162 -42.5q-168 0 -278.5 126t-110.5 322 q0 123 40 227.5t107 175.5t156 110.5t187 39.5q111 0 189.5 -58t101.5 -116q-7 65 10 150h321l-125 -723q-5 -28 5.5 -51t37.5 -23q60 0 112.5 49.5t84.5 123t50 151t18 139.5q0 270 -175.5 433t-474.5 163q-165 0 -310.5 -56.5t-253.5 -159t-171 -256.5t-63 -339 q0 -299 186.5 -469t505.5 -170q214 0 362 86l254 -47q-122 -98 -290 -153.5t-336 -55.5q-197 0 -362.5 59.5t-280 165t-178.5 254.5t-64 324zM760 461q0 -80 49 -135.5t123 -55.5q83 0 144 67t61 171q0 81 -48 135.5t-122 54.5q-83 0 -145 -66.5t-62 -170.5z" />
<glyph unicode="A" horiz-adv-x="1320" d="M-68 0l693 1434h409l201 -1434h-354l-39 334h-379l-152 -334h-379zM590 639h225l-39 397h-8z" />
<glyph unicode="B" horiz-adv-x="1218" d="M53 0l246 1434h453q206 0 325 -99t119 -235q0 -252 -248 -342q96 -42 153.5 -122.5t57.5 -176.5q0 -198 -143 -328.5t-381 -130.5h-582zM451 301h120q115 0 170.5 42.5t55.5 117.5q0 59 -43 100t-127 41h-125zM555 903h121q68 0 114 30t46 95q0 45 -37 75t-88 30h-119z " />
<glyph unicode="C" horiz-adv-x="1562" d="M98 680q0 165 64 311t170 247.5t247 160.5t293 59q268 0 462.5 -159.5t234.5 -407.5h-393q-28 106 -107.5 170.5t-204.5 64.5q-168 0 -283.5 -130.5t-115.5 -325.5q0 -155 92.5 -259t257.5 -104q239 0 334 236h405q-62 -259 -272 -413.5t-475 -154.5q-151 0 -283 54 t-225.5 147.5t-147 224.5t-53.5 279z" />
<glyph unicode="D" horiz-adv-x="1466" d="M51 0l248 1434h471q202 0 358.5 -80.5t241 -221.5t84.5 -319q0 -236 -99 -420t-284 -288.5t-428 -104.5h-592zM449 305h180q197 0 332 129.5t135 339.5q0 90 -33.5 160.5t-88 111t-117.5 61.5t-130 21h-135z" />
<glyph unicode="E" horiz-adv-x="1304" d="M53 0l246 1434h1098l-51 -306h-754l-41 -245h403l-53 -303h-403l-47 -275h751l-51 -305h-1098z" />
<glyph unicode="F" horiz-adv-x="1216" d="M53 0l246 1434h1059l-51 -306h-715l-47 -282h540l-53 -305h-543l-92 -541h-344z" />
<glyph unicode="G" horiz-adv-x="1579" d="M100 680q0 165 64 311t170 247.5t247 160.5t293 59q268 0 462.5 -159.5t234.5 -407.5h-393q-28 106 -107.5 170.5t-204.5 64.5q-168 0 -283.5 -130.5t-115.5 -325.5q0 -100 41.5 -186t124.5 -140.5t190 -54.5q127 0 216 59t120 131h-317l49 279h657l-131 -758h-266 l27 160q-182 -185 -428 -185q-127 0 -244 49.5t-207.5 138.5t-144.5 223.5t-54 293.5z" />
<glyph unicode="H" horiz-adv-x="1447" d="M51 0l248 1434h344l-94 -551h491l95 551h346l-248 -1434h-344l100 580h-491l-101 -580h-346z" />
<glyph unicode="I" horiz-adv-x="612" d="M53 0l246 1434h346l-246 -1434h-346z" />
<glyph unicode="J" horiz-adv-x="1259" d="M41 559l14 86h348l-16 -94q-5 -30 -5 -58q0 -71 36 -127q49 -77 162 -77q92 0 147.5 60t73.5 165l157 920h347l-175 -1002q-35 -203 -184 -331t-379 -128q-126 0 -233 43t-179.5 119t-104.5 187q-18 65 -18 135q0 50 9 102z" />
<glyph unicode="K" horiz-adv-x="1325" d="M51 0l248 1434h344l-94 -543h72l462 543h430l-632 -707l362 -727h-399l-275 588h-69l-103 -588h-346z" />
<glyph unicode="L" horiz-adv-x="1085" d="M53 0l246 1434h346l-194 -1129h585l-51 -305h-932z" />
<glyph unicode="M" horiz-adv-x="1701" d="M51 0l248 1434h438l142 -729l397 729h459l-248 -1434h-344l151 868l-311 -561h-330l-112 561l-152 -868h-338z" />
<glyph unicode="N" horiz-adv-x="1447" d="M51 0l248 1434h469l217 -850l154 850h342l-248 -1434h-397l-261 985l-182 -985h-342z" />
<glyph unicode="O" horiz-adv-x="1595" d="M98 680q0 165 64 311t170 247.5t247 160.5t293 59q202 0 364.5 -92t253.5 -253t91 -359q0 -165 -64 -311.5t-170 -248t-247 -160.5t-293 -59q-151 0 -283 54t-225.5 147.5t-147 224.5t-53.5 279zM465 670q0 -155 93 -259t257 -104q168 0 283.5 131t115.5 326 q0 155 -93 258.5t-257 103.5q-168 0 -283.5 -130.5t-115.5 -325.5z" />
<glyph unicode="P" horiz-adv-x="1212" d="M51 0l248 1434h428q235 0 382.5 -133t147.5 -334q0 -238 -163 -382.5t-441 -144.5h-182l-76 -440h-344zM522 745h96q285 0 285 213q0 81 -62.5 125.5t-160.5 44.5h-90z" />
<glyph unicode="Q" horiz-adv-x="1597" d="M98 680q0 165 64 311t170 247.5t247 160.5t293 59q202 0 364.5 -92t253.5 -253t91 -359q0 -186 -78.5 -344t-214.5 -265l12 -22q39 -80 154 -80q18 0 43.5 3t42.5 6l16 3l-55 -313q-151 -12 -227 -12q-87 0 -159 43.5t-114 124.5l-51 92q-88 -15 -143 -15q-151 0 -283 54 t-225.5 147.5t-147 224.5t-53.5 279zM465 670q0 -155 93 -259t257 -104q168 0 283.5 131t115.5 326q0 155 -93 258.5t-257 103.5q-168 0 -283.5 -130.5t-115.5 -325.5z" />
<glyph unicode="R" horiz-adv-x="1325" d="M51 0l248 1434h487q243 0 382 -122t139 -313q0 -78 -21.5 -146t-54.5 -113.5t-77.5 -82t-84 -57t-80.5 -33.5l291 -567h-377l-246 502h-174l-86 -502h-346zM537 813h196q54 0 101 15t82.5 55t35.5 100q0 66 -46.5 105.5t-137.5 39.5h-176z" />
<glyph unicode="S" horiz-adv-x="1161" d="M-2 244l209 233q182 -201 364 -201q71 0 115.5 36.5t44.5 90.5q0 48 -31.5 82.5t-107.5 77.5l-164 92q-125 70 -187.5 166.5t-62.5 202.5q0 193 139.5 313.5t360.5 120.5q141 0 286 -63t242 -181l-217 -221q-68 85 -148 123.5t-155 38.5q-69 0 -107 -34.5t-38 -76.5 q0 -30 17.5 -55.5t70.5 -56.5l168 -98q167 -98 235 -187.5t68 -232.5q0 -78 -32.5 -154t-93.5 -140.5t-162.5 -104.5t-227.5 -40q-88 0 -171.5 19.5t-146 48.5t-118.5 67t-90.5 70.5t-59.5 63.5z" />
<glyph unicode="T" horiz-adv-x="1214" d="M139 1116l56 318h1163l-55 -318h-408l-195 -1116h-342l193 1116h-412z" />
<glyph unicode="U" horiz-adv-x="1343" d="M131 559l152 875h344l-150 -883q-5 -30 -5 -58q0 -72 36 -127q50 -77 162 -77q92 0 146.5 59.5t74.5 165.5l156 920h342l-175 -1002q-34 -203 -180.5 -331t-376.5 -128q-126 0 -233 43t-180 119q-72 77 -104 187q-19 65 -18 135q0 50 9 102z" />
<glyph unicode="V" horiz-adv-x="1312" d="M193 1434h356l57 -949h2l516 949h381l-817 -1434h-364z" />
<glyph unicode="W" horiz-adv-x="1961" d="M201 0l12 1434h354l-24 -887h2l461 887h364l-12 -887h2l403 887h357l-688 -1434h-390l25 977l-494 -977h-372z" />
<glyph unicode="X" horiz-adv-x="1294" d="M-86 0l565 727l-307 707h389l168 -441l311 441h418l-561 -721l320 -713h-381l-181 451l-319 -451h-422z" />
<glyph unicode="Y" horiz-adv-x="1382" d="M154 1434h391l198 -482h15l366 482h428l-673 -852l-103 -582h-342l101 575z" />
<glyph unicode="Z" horiz-adv-x="1323" d="M-12 0l51 291l872 825h-716l53 318h1163l-53 -304l-854 -813h715l-56 -317h-1175z" />
<glyph unicode="[" horiz-adv-x="794" d="M-6 -313l301 1747h598l-53 -297h-260l-199 -1153h260l-51 -297h-596z" />
<glyph unicode="\" horiz-adv-x="864" d="M211 1434h297l229 -1434h-295z" />
<glyph unicode="]" horiz-adv-x="796" d="M-68 -313l54 297h258l198 1153h-260l51 297h598l-303 -1747h-596z" />
<glyph unicode="^" horiz-adv-x="1105" d="M72 461l463 973h387l112 -973h-317l-45 606l-264 -606h-336z" />
<glyph unicode="_" horiz-adv-x="1024" d="M-104 -360l49 280h936l-50 -280h-935z" />
<glyph unicode="`" horiz-adv-x="569" d="M127 1434h418l104 -363h-305z" />
<glyph unicode="a" d="M49 424q0 123 39 227.5t105.5 175.5t155 110.5t186.5 39.5q66 0 121 -18.5t89 -48.5t54 -56t30 -51q-3 19 -3 40q0 45 12 99l2 10h321l-164 -952h-323l22 117q-29 -56 -96 -99t-162 -43q-168 0 -278.5 126.5t-110.5 322.5zM371 453q0 -80 49 -135.5t123 -55.5 q83 0 144 67t61 171q0 81 -48 135.5t-122 54.5q-83 0 -145 -66.5t-62 -170.5z" />
<glyph unicode="b" d="M20 0l244 1434h328l-80 -451l-27 -147q29 56 96 98.5t162 42.5q168 0 279 -126.5t111 -322.5q0 -123 -38 -227.5t-103 -175.5t-152 -110.5t-185 -39.5q-60 0 -112 18t-85 46t-54 54t-31 50l-31 -143h-322zM434 453q0 -81 48 -136t122 -55q83 0 145 67t62 171 q0 80 -49 135t-123 55q-83 0 -144 -66.5t-61 -170.5z" />
<glyph unicode="c" horiz-adv-x="1067" d="M47 446q0 115 40.5 214.5t110 168.5t165 108.5t202.5 39.5q183 0 311.5 -104.5t157.5 -278.5l-307 -64q-8 71 -52.5 115.5t-111.5 44.5q-82 0 -139 -66t-57 -171q0 -81 45.5 -136t119.5 -55q66 0 116.5 38.5t64.5 109.5l307 -64q-32 -123 -109.5 -208.5t-176 -124 t-212.5 -38.5q-130 0 -238 58t-172.5 166.5t-64.5 246.5z" />
<glyph unicode="d" d="M49 424q0 123 39 227.5t105.5 175.5t155 110.5t186.5 39.5q66 0 121 -18.5t89 -48.5t54 -56t30 -51v19q0 60 15 147l82 465h319l-248 -1434h-323l22 115q-27 -52 -95.5 -96t-162.5 -44q-168 0 -278.5 126.5t-110.5 322.5zM371 453q0 -80 49 -135.5t123 -55.5q83 0 144 67 t61 171q0 81 -48 135.5t-122 54.5q-83 0 -145 -66.5t-62 -170.5z" />
<glyph unicode="e" horiz-adv-x="1089" d="M47 446q0 152 74.5 275t193 189.5t252.5 66.5q83 0 161 -27t146.5 -79.5t115 -141.5t57.5 -203q3 -32 3 -67t-3 -74h-670q7 -58 51.5 -94.5t103.5 -36.5q109 0 156 90l326 -59q-42 -139 -175.5 -224.5t-316.5 -85.5q-130 0 -238 58t-172.5 166.5t-64.5 246.5zM389 590 h324q-3 54 -46.5 89.5t-105.5 35.5q-55 0 -104 -33t-68 -92z" />
<glyph unicode="f" horiz-adv-x="720" d="M80 672l47 280h143l43 242q23 138 101.5 201t210.5 63q31 0 91 -3.5t104 -6.5l44 -4l-51 -303q-90 10 -115 10q-74 0 -84 -64l-22 -135h174l-47 -280h-176l-117 -672h-320l115 672h-141z" />
<glyph unicode="g" horiz-adv-x="1198" d="M51 444q0 119 40.5 220.5t108 169t154.5 105.5t181 38q111 0 186 -46.5t104 -103.5q3 57 15 125h338l-177 -1018q-53 -294 -333 -294h-377l47 280h260q82 0 94 70l25 137q-37 -57 -106 -92t-156 -35q-170 0 -287 129.5t-117 314.5zM377 473q0 -82 49.5 -139.5 t132.5 -57.5q85 0 145 70.5t60 165.5q0 72 -50.5 128t-129.5 56q-87 0 -147 -64t-60 -159z" />
<glyph unicode="h" horiz-adv-x="1112" d="M20 0l246 1434h316l-86 -502q-12 -59 -25 -86q60 63 137.5 97t153.5 34q152 1 232 -101q59 -74 58 -185q0 -41 -8 -87l-106 -604h-322l91 524q4 24 4 44q1 44 -19 72q-28 40 -82 40q-44 0 -91.5 -29.5t-78.5 -62.5l-100 -588h-320z" />
<glyph unicode="i" horiz-adv-x="595" d="M88 672l45 280h445l-166 -952h-322l117 672h-119zM244 1262q0 82 57 139t139 57t139.5 -57t57.5 -139t-57.5 -139.5t-139.5 -57.5t-139 57.5t-57 139.5z" />
<glyph unicode="j" horiz-adv-x="593" d="M-133 -360l47 280h90q41 0 58 11.5t22 39.5l121 701h-121l47 280h444l-186 -1069q-10 -57 -29 -100t-47.5 -68.5t-55.5 -41.5t-66.5 -22.5t-66 -8.5t-67.5 -2h-190zM240 1262q0 82 57 139t139 57t139.5 -57t57.5 -139t-57.5 -139.5t-139.5 -57.5t-139 57.5t-57 139.5z " />
<glyph unicode="k" horiz-adv-x="1069" d="M20 0l246 1434h320l-140 -801h37l254 319h391l-385 -458l248 -494h-358l-166 352h-68l-59 -352h-320z" />
<glyph unicode="l" horiz-adv-x="524" d="M20 0l244 1434h324l-248 -1434h-320z" />
<glyph unicode="m" horiz-adv-x="1714" d="M18 0l166 952h316q-11 -74 -27 -106q125 131 281 131q96 0 161.5 -43.5t96.5 -128.5q62 77 156 124.5t196 47.5q151 1 232 -101q59 -74 59 -185q0 -41 -8 -87l-107 -604h-321l90 520q4 25 4 46q-1 44 -19 72q-28 42 -82 42q-44 0 -94 -30t-80 -62q-4 -52 -14 -105 l-84 -483h-322l91 520q4 25 4 46q-1 44 -19 72q-28 42 -82 42q-44 0 -91.5 -29.5t-78.5 -62.5l-102 -588h-322z" />
<glyph unicode="n" horiz-adv-x="1114" d="M18 0l166 952h316q-11 -74 -27 -106q60 63 137.5 97t153.5 34q151 1 232 -101q59 -74 59 -185q0 -41 -8 -87l-107 -604h-322l91 524q4 24 4 44q1 44 -19 72q-28 40 -82 40q-44 0 -91.5 -29.5t-78.5 -62.5l-102 -588h-322z" />
<glyph unicode="o" horiz-adv-x="1099" d="M47 446q0 114 45.5 214.5t119.5 169t170 108t196 39.5q130 0 238 -58t172.5 -166.5t64.5 -246.5q0 -114 -45.5 -214.5t-119.5 -169t-170 -108t-196 -39.5q-130 0 -238 58t-172.5 166.5t-64.5 246.5zM367 453q0 -81 45.5 -136t119.5 -55q82 0 141.5 67t59.5 171 q0 81 -46 135.5t-120 54.5q-82 0 -141 -66.5t-59 -170.5z" />
<glyph unicode="p" d="M-41 -360l223 1312h326l-23 -116q29 56 96 98.5t162 42.5q168 0 279 -126.5t111 -322.5q0 -123 -39 -227.5t-105.5 -175.5t-155 -110.5t-186.5 -39.5q-59 0 -109 14.5t-83.5 39t-55.5 47.5t-37 49l-81 -485h-322zM434 453q0 -81 48 -136t122 -55q83 0 145 67t62 171 q0 80 -49 135t-123 55q-83 0 -144 -66.5t-61 -170.5z" />
<glyph unicode="q" d="M49 424q0 123 39 227.5t105.5 175.5t155 110.5t186.5 39.5q66 0 121 -18.5t89 -48.5t54 -56t30 -51q-2 12 -2 29q0 43 13 120h321l-225 -1312h-332l94 475q-27 -52 -95.5 -96t-162.5 -44q-168 0 -279.5 127t-111.5 322zM371 453q0 -80 49 -135.5t123 -55.5q83 0 144 67 t61 171q0 81 -48 135.5t-122 54.5q-83 0 -145 -66.5t-62 -170.5z" />
<glyph unicode="r" horiz-adv-x="733" d="M20 0l164 952h310l-27 -151q92 162 238 162q25 0 71 -11l-57 -342h-96q-101 0 -145.5 -39t-59.5 -133l-76 -438h-322z" />
<glyph unicode="s" horiz-adv-x="894" d="M-29 162l203 200q38 -51 115.5 -92t144.5 -41q29 0 47.5 12t18.5 33t-15.5 35t-64.5 35l-131 55q-96 41 -140.5 114t-44.5 157q0 54 23 107t67 98.5t119 73.5t170 28q112 0 222.5 -44t183.5 -128l-191 -189q-47 58 -104.5 84.5t-106.5 26.5q-31 0 -48 -13t-17 -30 q0 -30 43 -49l133 -62q221 -97 221 -276q0 -104 -54.5 -178.5t-141.5 -109t-195 -34.5q-86 0 -167 20.5t-137.5 51.5t-95 60.5t-57.5 54.5z" />
<glyph unicode="t" horiz-adv-x="745" d="M57 672l49 280h140l59 340h322l-62 -340h189l-49 -280h-187l-57 -330q-5 -37 15.5 -50t55.5 -13l119 6l-51 -285q-147 -12 -227 -12q-59 0 -107.5 14.5t-85.5 45.5q-36 30 -52 84q-8 29 -9 63q0 29 6 61l72 416h-140z" />
<glyph unicode="u" horiz-adv-x="1079" d="M82 457l86 495h324l-91 -514q-4 -22 -3 -41q0 -50 24 -82q34 -43 100 -43q48 0 83 34t48 108l95 538h323l-110 -637q-27 -154 -142.5 -247t-308.5 -93q-157 0 -263.5 66.5t-146.5 174.5q-26 69 -26 148q0 45 8 93z" />
<glyph unicode="v" horiz-adv-x="1019" d="M90 952h336l33 -592l274 592h377l-522 -952h-414z" />
<glyph unicode="w" horiz-adv-x="1527" d="M117 952h329l-28 -596l260 596h276l45 -608l222 608h366l-411 -952h-388l-47 518l-206 -518h-408z" />
<glyph unicode="x" horiz-adv-x="1013" d="M-66 0l353 477l-191 475h350l84 -239l168 239h377l-348 -473l197 -479h-353l-92 246l-162 -246h-383z" />
<glyph unicode="y" horiz-adv-x="1114" d="M74 391l98 561h322l-86 -508q-4 -24 -4 -44q0 -43 18 -72q25 -41 84 -41q42 0 86 25t78 67l102 573h322l-179 -1018q-11 -62 -31.5 -110.5t-57.5 -92t-98.5 -67.5t-143.5 -24h-338l49 280h217q82 0 96 70l23 114q-46 -47 -116.5 -75.5t-143.5 -28.5q-157 0 -243 116 q-62 86 -62 194q0 39 8 81z" />
<glyph unicode="z" horiz-adv-x="985" d="M-10 0l45 274l510 398h-434l47 280h835l-47 -274l-510 -397h443l-48 -281h-841z" />
<glyph unicode="{" horiz-adv-x="815" d="M53 455l51 288h146l121 691h536l-53 -297h-201l-59 -351q-28 -147 -152 -186q105 -42 88 -188l-75 -428h200l-51 -297h-536l133 768h-148z" />
<glyph unicode="|" horiz-adv-x="497" d="M18 -190l301 1746h236l-303 -1746h-234z" />
<glyph unicode="}" horiz-adv-x="813" d="M-61 -313l53 297h198l74 428q5 33 17.5 64.5t48 68.5t86.5 55q-110 39 -88 186l61 351h-201l52 297h536l-121 -691h148l-51 -288h-146l-133 -768h-534z" />
<glyph unicode="~" horiz-adv-x="1064" d="M88 532l29 156q4 25 7 39t12.5 43.5t20.5 48t31.5 42.5t46 38.5t63 24.5t83.5 10q52 0 186 -40t146 -40q29 0 43.5 16t17.5 60h299l-29 -156q-4 -25 -7 -39t-12.5 -43.5t-20.5 -48t-31.5 -42.5t-46 -38.5t-63 -24.5t-83.5 -10q-52 0 -185.5 40t-145.5 40q-30 0 -44.5 -16 t-17.5 -60h-299z" />
<glyph unicode="&#xa1;" horiz-adv-x="567" d="M-61 -481l192 968h311l-137 -968h-366zM117 772q0 85 60.5 145t146.5 60q85 0 144.5 -60t59.5 -145q0 -86 -59.5 -146.5t-144.5 -60.5q-86 0 -146.5 60.5t-60.5 146.5z" />
<glyph unicode="&#xa2;" horiz-adv-x="1128" d="M113 690q0 115 40.5 214.5t110 168.5t165 108.5t202.5 39.5q8 0 24.5 -1t24.5 -1l65 215h162l-76 -252q107 -45 177 -133.5t92 -210.5l-307 -64q-10 74 -52 113l-114 -379q56 8 97 45.5t54 99.5l307 -63q-32 -123 -109 -208.5t-175.5 -124t-212.5 -38.5q-31 0 -47 2 l-66 -221h-162l78 258q-126 52 -202 166t-76 266zM432 696q0 -87 49 -139l113 373q-71 -14 -116.5 -77.5t-45.5 -156.5z" />
<glyph unicode="&#xa3;" horiz-adv-x="1183" d="M23 0l51 305h143q42 35 70 91t28 122q0 39 -8 66h-207l43 241h107q-23 63 -23 150q0 210 139.5 345.5t372.5 135.5q205 0 336 -107t131 -286q0 -41 -4 -70h-344q4 20 4 41q0 44 -32.5 79.5t-94.5 35.5q-64 0 -113 -50t-49 -149q0 -58 25 -125h410l-43 -241h-326 q-6 -92 -45 -166t-88 -113h559l-51 -305h-991z" />
<glyph unicode="&#xa4;" horiz-adv-x="1581" d="M31 238l221 168q-80 159 -47 364q15 93 60.5 184t111.5 164l-160 197l207 164l156 -199q177 91 362 76q191 -18 328 -137l219 165l143 -192l-223 -166q80 -164 47 -367q-15 -93 -60.5 -184t-111.5 -162l160 -198l-207 -164l-156 201q-175 -93 -362 -78q-188 18 -328 139 l-219 -168zM457 748q-19 -108 11.5 -203t107.5 -157t186 -71q163 -15 288.5 91.5t153.5 273.5q19 109 -11.5 204.5t-107 157t-184.5 70.5q-165 15 -290.5 -91.5t-153.5 -274.5z" />
<glyph unicode="&#xa5;" horiz-adv-x="1517" d="M184 201l43 239h353l24 144h-352l43 241h215l-289 609h404l198 -482h15l364 482h418l-500 -609h226l-43 -241h-357l-24 -144h356l-43 -239h-356l-35 -201h-342l35 201h-353z" />
<glyph unicode="&#xa6;" horiz-adv-x="497" d="M18 -190l129 768h238l-133 -768h-234zM186 788l133 768h236l-131 -768h-238z" />
<glyph unicode="&#xa7;" horiz-adv-x="1230" d="M-12 -35l223 221q67 -91 158.5 -136.5t169.5 -45.5q66 0 98.5 23t32.5 61q0 29 -20 46t-62 32l-201 67q-133 45 -213 124.5t-80 197.5q0 124 82.5 207.5t214.5 105.5q-59 36 -91 101t-32 139q0 119 65.5 206t172 129t239.5 42q167 0 306 -65t231 -171l-231 -233 q-66 91 -149.5 138.5t-158.5 47.5q-69 0 -100 -25t-31 -61q0 -35 36 -63.5t128 -61.5l82 -28q180 -63 253 -131t73 -185q0 -109 -68.5 -197t-204.5 -110q109 -93 109 -225q0 -181 -136 -287.5t-343 -106.5q-177 0 -328 70t-225 174zM428 614q3 -65 92 -94l156 -53 q68 3 117 32t49 76q0 58 -103 93l-129 45q-29 0 -55.5 -3.5t-57.5 -12.5t-50 -30.5t-19 -52.5z" />
<glyph unicode="&#xa8;" horiz-adv-x="899" d="M154 1217q0 76 54.5 131t131.5 55q74 0 130 -55.5t56 -130.5q0 -73 -56 -128t-130 -55q-77 0 -131.5 54.5t-54.5 128.5zM580 1217q0 75 54.5 130.5t129.5 55.5q74 0 130 -55.5t56 -130.5q0 -73 -56 -128t-130 -55q-75 0 -129.5 54.5t-54.5 128.5z" />
<glyph unicode="&#xa9;" horiz-adv-x="1705" d="M127 713q0 218 102 393t277.5 272t388.5 97t388.5 -97t277.5 -272t102 -393q0 -164 -60 -306.5t-162.5 -242t-244 -156.5t-301.5 -57t-301.5 57t-244 156.5t-162.5 242t-60 306.5zM330 713q0 -258 158 -425t407 -167t407 167t158 425q0 256 -158 421.5t-407 165.5 t-407 -165.5t-158 -421.5zM463 717q0 190 127 313t319 123q148 0 265 -95t153 -255l-256 -10q-17 63 -61 100t-101 37q-89 0 -143.5 -60.5t-54.5 -152.5q0 -95 54 -156t144 -61q57 0 101 37t61 100l256 -10q-36 -159 -153.5 -255t-264.5 -96q-187 0 -316.5 125t-129.5 316z " />
<glyph unicode="&#xaa;" horiz-adv-x="1058" d="M162 989q0 104 33.5 193t90.5 149t133 93.5t159 33.5q94 0 160.5 -48.5t86.5 -98.5q-6 57 9 127h272l-139 -809h-275l19 98q-24 -47 -81 -83t-138 -36q-142 0 -236 107.5t-94 273.5zM434 1014q0 -68 42 -115t106 -47q70 0 122 56.5t52 144.5q0 68 -41 114.5t-105 46.5 q-70 0 -123 -56t-53 -144z" />
<glyph unicode="&#xab;" horiz-adv-x="1189" d="M61 487l308 392h350l-303 -392l149 -393h-311zM539 487l307 392h350l-303 -392l149 -393h-311z" />
<glyph unicode="&#xac;" horiz-adv-x="1064" d="M100 795l54 301h913l-129 -731h-320l76 430h-594z" />
<glyph unicode="&#xad;" horiz-adv-x="512" />
<glyph unicode="&#xae;" horiz-adv-x="1705" d="M127 713q0 218 102 393t277.5 272t388.5 97t388.5 -97t277.5 -272t102 -393q0 -164 -60 -306.5t-162.5 -242t-244 -156.5t-301.5 -57t-301.5 57t-244 156.5t-162.5 242t-60 306.5zM330 713q0 -258 158 -425t407 -167t407 167t158 425q0 256 -158 421.5t-407 165.5 t-407 -165.5t-158 -421.5zM565 313v834h359q152 0 238.5 -71t86.5 -193q0 -45 -14 -88t-52 -87t-96 -69l220 -326h-279l-147 269h-76v-269h-240zM805 788h90q46 0 75 21t29 59q0 37 -28.5 55.5t-75.5 18.5h-90v-154z" />
<glyph unicode="&#xaf;" horiz-adv-x="790" d="M152 1075l49 283h698l-49 -283h-698z" />
<glyph unicode="&#xb0;" horiz-adv-x="851" d="M176 1102q0 148 104 252t252 104t252.5 -104t104.5 -252t-104.5 -252.5t-252.5 -104.5t-252 104.5t-104 252.5zM389 1102q0 -63 41.5 -108.5t101.5 -45.5t102 45.5t42 108.5q0 62 -42 107.5t-102 45.5q-59 0 -101 -45.5t-42 -107.5z" />
<glyph unicode="&#xb1;" horiz-adv-x="1064" d="M-6 0l51 301h913l-53 -301h-911zM111 676l53 301h297l55 307h320l-56 -307h297l-53 -301h-297l-53 -307h-320l54 307h-297z" />
<glyph unicode="&#xb2;" horiz-adv-x="880" d="M131 532l45 244l316 201q81 51 111 89.5t30 82.5q0 33 -22 53.5t-58 20.5q-38 0 -61 -24t-23 -66q0 -19 8 -52l-229 -18q-17 66 -17 100q0 53 20 102.5t58.5 91t103 66.5t144.5 25q84 0 149 -25t102 -65.5t56 -88t19 -98.5q0 -66 -23 -122t-69 -101t-94 -77.5t-117 -69.5 l-88 -47h325q-18 -111 -39 -222h-647z" />
<glyph unicode="&#xb3;" horiz-adv-x="880" d="M166 772q0 35 8 66h250q-10 -27 -10 -50q0 -26 14.5 -44.5t44.5 -18.5q35 0 56.5 24.5t21.5 69.5q0 48 -33.5 69t-79.5 21t-71 -2l43 197l188 117h-334l37 213h600l-43 -246l-219 -133q72 -18 121 -78.5t49 -149.5q0 -139 -95.5 -225t-242.5 -86t-226 72t-79 184z" />
<glyph unicode="&#xb4;" horiz-adv-x="569" d="M166 1071l143 363h420l-258 -363h-305z" />
<glyph unicode="&#xb5;" horiz-adv-x="1107" d="M-25 -360l224 1312h321l-86 -514q-13 -81 23 -122.5t112 -41.5q52 0 90.5 33.5t49.5 106.5l92 538h323l-110 -637q-26 -155 -138 -247.5t-303 -92.5q-65 0 -134 23.5t-105 56.5l-72 -415h-287z" />
<glyph unicode="&#xb6;" horiz-adv-x="1374" d="M162 1038q32 185 165.5 290.5t325.5 105.5h733l-247 -1434h-344l194 1128h-129l-194 -1128h-347l109 633q-138 9 -216.5 124t-49.5 281z" />
<glyph unicode="&#xb7;" horiz-adv-x="575" d="M123 733q0 86 60 146.5t145 60.5q86 0 146.5 -60.5t60.5 -146.5q0 -85 -60.5 -145t-146.5 -60q-85 0 -145 60t-60 145z" />
<glyph unicode="&#xb8;" horiz-adv-x="636" d="M-63 -279l137 318h358l-205 -318h-290z" />
<glyph unicode="&#xb9;" horiz-adv-x="880" d="M178 532l35 213h166l88 476h-150l39 213h398l-123 -689h164l-37 -213h-580z" />
<glyph unicode="&#xba;" horiz-adv-x="980" d="M160 1008q0 128 65.5 233t168 161t216.5 56q170 0 287 -111.5t117 -287.5q0 -97 -38.5 -182.5t-101.5 -143.5t-144.5 -91.5t-166.5 -33.5q-169 0 -286 112t-117 288zM430 1014q0 -69 39.5 -115.5t101.5 -46.5q70 0 121 56.5t51 144.5q0 69 -39.5 115t-101.5 46 q-70 0 -121 -56t-51 -144z" />
<glyph unicode="&#xbb;" horiz-adv-x="1200" d="M8 94l303 393l-172 392h312l215 -392l-310 -393h-348zM483 94l305 393l-170 392h310l215 -392l-309 -393h-351z" />
<glyph unicode="&#xbc;" horiz-adv-x="2211" d="M137 532l35 213h166l88 476h-150l39 213h398l-123 -689h164l-37 -213h-580zM317 37l1637 1481l98 -113l-1636 -1481zM1374 186l37 224l408 491h301l-95 -506h95l-39 -209h-92l-35 -186h-242l35 186h-373zM1630 395h156l43 240z" />
<glyph unicode="&#xbd;" horiz-adv-x="2211" d="M137 532l35 213h166l88 476h-150l39 213h398l-123 -689h164l-37 -213h-580zM317 37l1637 1481l98 -113l-1636 -1481zM1384 0l46 244l315 200q81 51 111 89.5t30 82.5q0 33 -22 53.5t-58 20.5q-38 0 -61 -24t-23 -66q0 -14 9 -51l-230 -19q-16 62 -16 101q0 53 20 102.5 t58.5 90.5t102.5 66t144 25q84 0 149 -24.5t102 -65.5t56 -88t19 -98q0 -53 -16.5 -101t-43 -84t-67.5 -71t-81.5 -60.5t-94.5 -54.5l-88 -47h326q-17 -104 -39 -221h-648z" />
<glyph unicode="&#xbe;" horiz-adv-x="2211" d="M193 772q0 35 8 66h250q-11 -29 -11 -50q0 -26 15 -44.5t45 -18.5q35 0 56.5 24.5t21.5 69.5q0 48 -33.5 69t-79.5 21q-47 0 -72 -2l43 197l189 117h-334l37 213h600l-43 -246l-219 -133q72 -18 121 -78.5t49 -149.5q0 -139 -95.5 -225t-242.5 -86t-226 72t-79 184z M317 37l1637 1481l98 -113l-1636 -1481zM1374 186l37 224l408 491h301l-95 -506h95l-39 -209h-92l-35 -186h-242l35 186h-373zM1630 395h156l43 240z" />
<glyph unicode="&#xbf;" horiz-adv-x="1048" d="M-33 -90q0 48 9.5 95t34 100t62.5 97.5t101 84t143 61.5l58 162h311l-68 -377l-47 -6q-127 -17 -185 -72.5t-58 -124.5q0 -50 31 -82t83 -32q51 0 82.5 34.5t38.5 81.5l4 27h330q-3 -98 -31 -177t-73 -132t-106.5 -88.5t-128 -51.5t-140.5 -16q-203 0 -327 117.5 t-124 298.5zM342 772q0 85 60.5 145t146.5 60q85 0 145 -60t60 -145q0 -86 -60 -146.5t-145 -60.5q-86 0 -146.5 60.5t-60.5 146.5z" />
<glyph unicode="&#xc0;" horiz-adv-x="1320" d="M-68 0l693 1434h409l201 -1434h-354l-39 334h-379l-152 -334h-379zM455 1915h417l105 -363h-305zM590 639h225l-39 397h-8z" />
<glyph unicode="&#xc1;" horiz-adv-x="1320" d="M-68 0l693 1434h409l201 -1434h-354l-39 334h-379l-152 -334h-379zM590 639h225l-39 397h-8zM709 1552l143 363h420l-258 -363h-305z" />
<glyph unicode="&#xc2;" horiz-adv-x="1320" d="M-68 0l693 1434h409l201 -1434h-354l-39 334h-379l-152 -334h-379zM444 1552l275 363h354l160 -363h-318l-47 119l-71 -119h-353zM590 639h225l-39 397h-8z" />
<glyph unicode="&#xc3;" horiz-adv-x="1320" d="M-68 0l693 1434h409l201 -1434h-354l-39 334h-379l-152 -334h-379zM504 1559q5 43 10.5 74t22.5 76.5t42 74t70 50t105 21.5q49 0 132 -34.5t107 -34.5q43 0 51 39l5 26l245 -41q-3 -30 -6.5 -51t-11.5 -54t-19 -56.5t-30 -49.5t-43.5 -42.5t-61 -27.5t-80.5 -11 q-47 0 -134.5 32.5t-102.5 32.5q-43 0 -51 -39l-4 -26zM590 639h225l-39 397h-8z" />
<glyph unicode="&#xc4;" horiz-adv-x="1320" d="M-68 0l693 1434h409l201 -1434h-354l-39 334h-379l-152 -334h-379zM446 1698q0 76 55 131t132 55q74 0 130 -55.5t56 -130.5q0 -73 -56 -127.5t-130 -54.5q-77 0 -132 54t-55 128zM590 639h225l-39 397h-8zM872 1698q0 75 55 130.5t130 55.5q74 0 130 -55.5t56 -130.5 q0 -73 -56 -127.5t-130 -54.5q-75 0 -130 54t-55 128z" />
<glyph unicode="&#xc5;" horiz-adv-x="1320" d="M-68 0l693 1434h409l201 -1434h-354l-39 334h-379l-152 -334h-379zM567 1759q0 117 81 193t202 76t203 -76t82 -193q0 -114 -82.5 -190t-202.5 -76t-201.5 76t-81.5 190zM590 639h225l-39 397h-8zM758 1759q0 -41 27.5 -69.5t64.5 -28.5q38 0 65 28.5t27 69.5 q0 43 -27 72t-65 29q-37 0 -64.5 -29.5t-27.5 -71.5z" />
<glyph unicode="&#xc6;" horiz-adv-x="2027" d="M-104 0l901 1434h1325l-54 -306h-753l-43 -245h485l-53 -303h-483l-50 -275h756l-53 -305h-1100l64 358h-326l-211 -358h-405zM696 662h193l82 450h-13z" />
<glyph unicode="&#xc7;" horiz-adv-x="1566" d="M100 680q0 165 64 311t170 247.5t247 160.5t293 59q268 0 462.5 -159.5t234.5 -407.5h-393q-28 106 -107.5 170.5t-204.5 64.5q-168 0 -283.5 -130.5t-115.5 -325.5q0 -155 92.5 -259t257.5 -104q239 0 334 236h405q-53 -221 -214 -366.5t-379 -186.5l-172 -269h-291 l118 277q-233 59 -375.5 244.5t-142.5 437.5z" />
<glyph unicode="&#xc8;" horiz-adv-x="1304" d="M53 0l246 1434h1098l-51 -306h-754l-41 -245h403l-53 -303h-403l-47 -275h751l-51 -305h-1098zM479 1915h418l104 -363h-305z" />
<glyph unicode="&#xc9;" horiz-adv-x="1304" d="M53 0l246 1434h1098l-51 -306h-754l-41 -245h403l-53 -303h-403l-47 -275h751l-51 -305h-1098zM664 1552l143 363h420l-258 -363h-305z" />
<glyph unicode="&#xca;" horiz-adv-x="1304" d="M53 0l246 1434h1098l-51 -306h-754l-41 -245h403l-53 -303h-403l-47 -275h751l-51 -305h-1098zM463 1552l274 363h355l159 -363h-317l-47 119l-72 -119h-352z" />
<glyph unicode="&#xcb;" horiz-adv-x="1304" d="M53 0l246 1434h1098l-51 -306h-754l-41 -245h403l-53 -303h-403l-47 -275h751l-51 -305h-1098zM469 1698q0 76 54.5 131t131.5 55q74 0 130.5 -55.5t56.5 -130.5q0 -73 -56.5 -127.5t-130.5 -54.5q-77 0 -131.5 54t-54.5 128zM895 1698q0 75 54.5 130.5t129.5 55.5 q74 0 130.5 -55.5t56.5 -130.5q0 -73 -56.5 -127.5t-130.5 -54.5q-75 0 -129.5 54t-54.5 128z" />
<glyph unicode="&#xcc;" horiz-adv-x="612" d="M53 0l246 1434h346l-246 -1434h-346zM113 1915h417l105 -363h-305z" />
<glyph unicode="&#xcd;" horiz-adv-x="612" d="M53 0l246 1434h346l-246 -1434h-346zM336 1552l143 363h420l-258 -363h-305z" />
<glyph unicode="&#xce;" horiz-adv-x="612" d="M53 0l246 1434h346l-246 -1434h-346zM88 1552l274 363h355l160 -363h-318l-47 119l-72 -119h-352z" />
<glyph unicode="&#xcf;" horiz-adv-x="612" d="M53 0l246 1434h346l-246 -1434h-346zM111 1698q0 76 54.5 131t131.5 55q74 0 130 -55.5t56 -130.5q0 -73 -56 -127.5t-130 -54.5q-77 0 -131.5 54t-54.5 128zM537 1698q0 75 54.5 130.5t129.5 55.5q74 0 130 -55.5t56 -130.5q0 -73 -56 -127.5t-130 -54.5 q-75 0 -129.5 54t-54.5 128z" />
<glyph unicode="&#xd0;" horiz-adv-x="1488" d="M27 580l53 303h145l97 551h471q202 0 358.5 -80.5t241 -221.5t84.5 -319q0 -236 -99 -420t-284 -288.5t-428 -104.5h-592l100 580h-147zM471 305h180q197 0 332 129.5t135 339.5q0 72 -22 132.5t-58.5 100.5t-84.5 68t-99 40.5t-104 12.5h-136l-43 -245h340l-55 -303 h-338z" />
<glyph unicode="&#xd1;" horiz-adv-x="1447" d="M51 0l248 1434h469l217 -850l154 850h342l-248 -1434h-397l-261 985l-182 -985h-342zM512 1559q5 43 10.5 74t22.5 76.5t42 74t70 50t105 21.5q49 0 132 -34.5t107 -34.5q44 0 52 39l4 26l246 -41q-3 -30 -6.5 -51t-11.5 -54t-19 -56.5t-30 -49.5t-43.5 -42.5t-61 -27.5 t-80.5 -11q-47 0 -135 32.5t-103 32.5q-43 0 -51 -39l-4 -26z" />
<glyph unicode="&#xd2;" horiz-adv-x="1595" d="M98 680q0 165 64 311t170 247.5t247 160.5t293 59q202 0 364.5 -92t253.5 -253t91 -359q0 -165 -64 -311.5t-170 -248t-247 -160.5t-293 -59q-151 0 -283 54t-225.5 147.5t-147 224.5t-53.5 279zM465 670q0 -155 93 -259t257 -104q168 0 283.5 131t115.5 326 q0 155 -93 258.5t-257 103.5q-168 0 -283.5 -130.5t-115.5 -325.5zM498 1915h417l105 -363h-305z" />
<glyph unicode="&#xd3;" horiz-adv-x="1595" d="M98 680q0 165 64 311t170 247.5t247 160.5t293 59q202 0 364.5 -92t253.5 -253t91 -359q0 -165 -64 -311.5t-170 -248t-247 -160.5t-293 -59q-151 0 -283 54t-225.5 147.5t-147 224.5t-53.5 279zM465 670q0 -155 93 -259t257 -104q168 0 283.5 131t115.5 326 q0 155 -93 258.5t-257 103.5q-168 0 -283.5 -130.5t-115.5 -325.5zM768 1552l143 363h420l-258 -363h-305z" />
<glyph unicode="&#xd4;" horiz-adv-x="1595" d="M98 680q0 165 64 311t170 247.5t247 160.5t293 59q202 0 364.5 -92t253.5 -253t91 -359q0 -165 -64 -311.5t-170 -248t-247 -160.5t-293 -59q-151 0 -283 54t-225.5 147.5t-147 224.5t-53.5 279zM465 670q0 -155 93 -259t257 -104q168 0 283.5 131t115.5 326 q0 155 -93 258.5t-257 103.5q-168 0 -283.5 -130.5t-115.5 -325.5zM526 1552l275 363h354l160 -363h-318l-47 119l-71 -119h-353z" />
<glyph unicode="&#xd5;" horiz-adv-x="1595" d="M98 680q0 165 64 311t170 247.5t247 160.5t293 59q202 0 364.5 -92t253.5 -253t91 -359q0 -165 -64 -311.5t-170 -248t-247 -160.5t-293 -59q-151 0 -283 54t-225.5 147.5t-147 224.5t-53.5 279zM465 670q0 -155 93 -259t257 -104q168 0 283.5 131t115.5 326 q0 155 -93 258.5t-257 103.5q-168 0 -283.5 -130.5t-115.5 -325.5zM535 1559q5 43 10.5 73.5t22.5 76.5t41.5 74.5t69.5 50t105 21.5q49 0 132.5 -34.5t107.5 -34.5q43 0 51 39l4 26l246 -41q-3 -30 -6.5 -51t-11.5 -54t-19 -56.5t-30 -49.5t-43.5 -42.5t-61 -27.5 t-80.5 -11q-47 0 -134.5 32.5t-102.5 32.5q-44 0 -52 -39l-4 -26z" />
<glyph unicode="&#xd6;" horiz-adv-x="1595" d="M98 680q0 165 64 311t170 247.5t247 160.5t293 59q202 0 364.5 -92t253.5 -253t91 -359q0 -165 -64 -311.5t-170 -248t-247 -160.5t-293 -59q-151 0 -283 54t-225.5 147.5t-147 224.5t-53.5 279zM465 670q0 -155 93 -259t257 -104q168 0 283.5 131t115.5 326 q0 155 -93 258.5t-257 103.5q-168 0 -283.5 -130.5t-115.5 -325.5zM537 1698q0 76 54.5 131t131.5 55q74 0 130 -55.5t56 -130.5q0 -73 -56 -127.5t-130 -54.5q-77 0 -131.5 54t-54.5 128zM963 1698q0 75 54.5 130.5t129.5 55.5q74 0 130 -55.5t56 -130.5q0 -73 -56 -127.5 t-130 -54.5q-75 0 -129.5 54t-54.5 128z" />
<glyph unicode="&#xd7;" horiz-adv-x="1105" d="M76 494l319 249l-213 287l238 189l209 -283l299 238l178 -234l-303 -240l213 -290l-240 -187l-207 285l-311 -248z" />
<glyph unicode="&#xd8;" horiz-adv-x="1597" d="M-41 -25l272 279q-133 181 -133 426q0 165 64 311t170 247.5t247 160.5t293 59q234 0 414 -125l121 125h346l-293 -299q121 -180 121 -405q0 -165 -64 -311.5t-170 -248t-247 -160.5t-293 -59q-226 0 -397 111l-109 -111h-342zM465 670q0 -80 27 -150l548 563 q-78 43 -176 43q-168 0 -283.5 -130.5t-115.5 -325.5zM657 338q70 -31 158 -31q168 0 283.5 131t115.5 326q0 66 -18 125z" />
<glyph unicode="&#xd9;" horiz-adv-x="1343" d="M131 559l152 875h344l-150 -883q-19 -108 30.5 -185t162.5 -77q92 0 146.5 59.5t74.5 165.5l156 920h342l-175 -1002q-34 -203 -180.5 -331t-376.5 -128q-126 0 -233 43t-179.5 119t-104 186.5t-9.5 237.5zM457 1915h417l105 -363h-305z" />
<glyph unicode="&#xda;" horiz-adv-x="1343" d="M131 559l152 875h344l-150 -883q-19 -108 30.5 -185t162.5 -77q92 0 146.5 59.5t74.5 165.5l156 920h342l-175 -1002q-34 -203 -180.5 -331t-376.5 -128q-126 0 -233 43t-179.5 119t-104 186.5t-9.5 237.5zM696 1552l144 363h420l-259 -363h-305z" />
<glyph unicode="&#xdb;" horiz-adv-x="1343" d="M131 559l152 875h344l-150 -883q-19 -108 30.5 -185t162.5 -77q92 0 146.5 59.5t74.5 165.5l156 920h342l-175 -1002q-34 -203 -180.5 -331t-376.5 -128q-126 0 -233 43t-179.5 119t-104 186.5t-9.5 237.5zM442 1552l275 363h354l160 -363h-318l-47 119l-71 -119h-353z " />
<glyph unicode="&#xdc;" horiz-adv-x="1343" d="M131 559l152 875h344l-150 -883q-19 -108 30.5 -185t162.5 -77q92 0 146.5 59.5t74.5 165.5l156 920h342l-175 -1002q-34 -203 -180.5 -331t-376.5 -128q-126 0 -233 43t-179.5 119t-104 186.5t-9.5 237.5zM457 1698q0 76 54.5 131t131.5 55q74 0 130 -55.5t56 -130.5 q0 -73 -56 -127.5t-130 -54.5q-77 0 -131.5 54t-54.5 128zM883 1698q0 75 54.5 130.5t129.5 55.5q74 0 130 -55.5t56 -130.5q0 -73 -56 -127.5t-130 -54.5q-75 0 -129.5 54t-54.5 128z" />
<glyph unicode="&#xdd;" horiz-adv-x="1382" d="M154 1434h391l198 -482h15l366 482h428l-673 -852l-103 -582h-342l101 575zM696 1552l144 363h420l-259 -363h-305z" />
<glyph unicode="&#xde;" horiz-adv-x="1214" d="M53 0l246 1434h344l-35 -205h84q234 0 382.5 -134t148.5 -333q0 -238 -163.5 -382t-441.5 -144h-182l-41 -236h-342zM487 541h99q60 0 106.5 9t88 31t64.5 66t23 107q0 81 -62 125.5t-161 44.5h-90z" />
<glyph unicode="&#xdf;" horiz-adv-x="1073" d="M20 0l183 1051q34 198 154.5 302.5t289.5 104.5q190 0 301 -102.5t111 -251.5q0 -68 -21 -129t-50.5 -102t-59.5 -74.5t-51 -61t-21 -47.5q0 -24 36 -87.5t72.5 -143t36.5 -142.5q0 -151 -96.5 -246.5t-255.5 -95.5q-43 0 -115 13t-120 37l69 243q52 -20 97 -20 q43 0 68.5 24t25.5 60q0 33 -23 76.5t-50 80.5t-50 88.5t-23 98.5q0 49 34.5 106t75.5 100.5t75.5 93.5t34.5 87t-27.5 63.5t-69.5 26.5q-47 0 -82 -35.5t-47 -103.5l-174 -1014h-328z" />
<glyph unicode="&#xe0;" d="M49 424q0 123 39 227.5t105.5 175.5t155 110.5t186.5 39.5q66 0 121 -18.5t89 -48.5t54 -56t30 -51q-8 59 9 139l2 10h321l-164 -952h-323l22 117q-29 -56 -96 -99t-162 -43q-168 0 -278.5 126.5t-110.5 322.5zM309 1434h418l104 -363h-305zM371 453q0 -80 49 -135.5 t123 -55.5q83 0 144 67t61 171q0 81 -48 135.5t-122 54.5q-83 0 -145 -66.5t-62 -170.5z" />
<glyph unicode="&#xe1;" d="M49 424q0 123 39 227.5t105.5 175.5t155 110.5t186.5 39.5q66 0 121 -18.5t89 -48.5t54 -56t30 -51q-8 59 9 139l2 10h321l-164 -952h-323l22 117q-29 -56 -96 -99t-162 -43q-168 0 -278.5 126.5t-110.5 322.5zM371 453q0 -80 49 -135.5t123 -55.5q83 0 144 67t61 171 q0 81 -48 135.5t-122 54.5q-83 0 -145 -66.5t-62 -170.5zM504 1071l143 363h420l-258 -363h-305z" />
<glyph unicode="&#xe2;" d="M49 424q0 123 39 227.5t105.5 175.5t155 110.5t186.5 39.5q66 0 121 -18.5t89 -48.5t54 -56t30 -51q-8 59 9 139l2 10h321l-164 -952h-323l22 117q-29 -56 -96 -99t-162 -43q-168 0 -278.5 126.5t-110.5 322.5zM270 1071l275 363h354l160 -363h-318l-47 119l-71 -119 h-353zM371 453q0 -80 49 -135.5t123 -55.5q83 0 144 67t61 171q0 81 -48 135.5t-122 54.5q-83 0 -145 -66.5t-62 -170.5z" />
<glyph unicode="&#xe3;" d="M49 424q0 123 39 227.5t105.5 175.5t155 110.5t186.5 39.5q66 0 121 -18.5t89 -48.5t54 -56t30 -51q-8 59 9 139l2 10h321l-164 -952h-323l22 117q-29 -56 -96 -99t-162 -43q-168 0 -278.5 126.5t-110.5 322.5zM291 1077q5 43 10.5 74t22.5 76.5t42 74.5t70 50.5 t105 21.5q49 0 132 -34.5t107 -34.5q43 0 51 38l5 27l245 -41q-3 -30 -6.5 -51t-11.5 -54t-19 -56.5t-30 -50t-43.5 -43t-61 -27.5t-80.5 -11q-47 0 -134.5 33t-102.5 33q-43 0 -51 -39l-4 -27zM371 453q0 -80 49 -135.5t123 -55.5q83 0 144 67t61 171q0 81 -48 135.5 t-122 54.5q-83 0 -145 -66.5t-62 -170.5z" />
<glyph unicode="&#xe4;" d="M49 424q0 123 39 227.5t105.5 175.5t155 110.5t186.5 39.5q66 0 121 -18.5t89 -48.5t54 -56t30 -51q-8 59 9 139l2 10h321l-164 -952h-323l22 117q-29 -56 -96 -99t-162 -43q-168 0 -278.5 126.5t-110.5 322.5zM307 1217q0 76 55 131t132 55q74 0 130 -55.5t56 -130.5 q0 -73 -56 -128t-130 -55q-77 0 -132 54.5t-55 128.5zM371 453q0 -80 49 -135.5t123 -55.5q83 0 144 67t61 171q0 81 -48 135.5t-122 54.5q-83 0 -145 -66.5t-62 -170.5zM733 1217q0 75 55 130.5t130 55.5q74 0 130 -55.5t56 -130.5q0 -73 -56 -128t-130 -55 q-75 0 -130 54.5t-55 128.5z" />
<glyph unicode="&#xe5;" d="M49 424q0 123 39 227.5t105.5 175.5t155 110.5t186.5 39.5q66 0 121 -18.5t89 -48.5t54 -56t30 -51q-8 59 9 139l2 10h321l-164 -952h-323l22 117q-29 -56 -96 -99t-162 -43q-168 0 -278.5 126.5t-110.5 322.5zM371 453q0 -80 49 -135.5t123 -55.5q83 0 144 67t61 171 q0 81 -48 135.5t-122 54.5q-83 0 -145 -66.5t-62 -170.5zM412 1278q0 117 80.5 192.5t201.5 75.5t203 -75.5t82 -192.5q0 -114 -82.5 -190t-202.5 -76t-201 76t-81 190zM602 1278q0 -41 27.5 -69.5t64.5 -28.5q38 0 65 28.5t27 69.5q0 42 -26.5 71t-65.5 29q-37 0 -64.5 -29 t-27.5 -71z" />
<glyph unicode="&#xe6;" horiz-adv-x="1658" d="M4 272q0 68 18.5 120.5t51 87t80.5 56t103 30.5t122 9h186q74 0 74 62q0 28 -30 44.5t-87 16.5q-61 0 -143 -17t-152 -44l-71 262q100 38 192 58t211 20q181 0 293 -86q131 86 283 86q71 0 139 -18.5t131 -60t110.5 -101.5t75.5 -149.5t27 -196.5q0 -20 -4 -66h-670 q7 -58 52 -94.5t104 -36.5q108 0 155 90l326 -59q-42 -139 -175 -224.5t-316 -85.5q-117 0 -217 47.5t-164 133.5q-17 -31 -45 -60t-71 -57.5t-106.5 -46t-138.5 -17.5q-147 0 -245.5 85.5t-98.5 211.5zM342 287q0 -36 28 -61t70 -25q61 0 108.5 48.5t51.5 139.5 q-18 -18 -68 -18h-75q-115 0 -115 -84zM956 590h324q-3 54 -46.5 89.5t-105.5 35.5q-55 0 -103 -33t-69 -92z" />
<glyph unicode="&#xe7;" horiz-adv-x="1073" d="M51 446q0 115 40.5 214.5t110 168.5t165 108.5t202.5 39.5q183 0 311.5 -104.5t157.5 -278.5l-307 -64q-8 71 -52.5 115.5t-111.5 44.5q-82 0 -139 -66t-57 -171q0 -81 46 -136t120 -55q66 0 116 38.5t64 109.5l307 -64q-37 -142 -129.5 -231t-220.5 -121l-176 -273h-291 l125 291q-127 54 -204 168t-77 266z" />
<glyph unicode="&#xe8;" horiz-adv-x="1089" d="M47 446q0 152 74.5 275t193 189.5t252.5 66.5q83 0 161 -27t146.5 -79.5t115 -141.5t57.5 -203q6 -64 0 -141h-670q7 -58 51.5 -94.5t103.5 -36.5q109 0 156 90l326 -59q-42 -139 -175.5 -224.5t-316.5 -85.5q-130 0 -238 58t-172.5 166.5t-64.5 246.5zM186 1434h418 l105 -363h-306zM389 590h324q-3 54 -46.5 89.5t-105.5 35.5q-55 0 -104 -33t-68 -92z" />
<glyph unicode="&#xe9;" horiz-adv-x="1089" d="M47 446q0 152 74.5 275t193 189.5t252.5 66.5q83 0 161 -27t146.5 -79.5t115 -141.5t57.5 -203q6 -64 0 -141h-670q7 -58 51.5 -94.5t103.5 -36.5q109 0 156 90l326 -59q-42 -139 -175.5 -224.5t-316.5 -85.5q-130 0 -238 58t-172.5 166.5t-64.5 246.5zM389 590h324 q-3 54 -46.5 89.5t-105.5 35.5q-55 0 -104 -33t-68 -92zM436 1071l144 363h419l-258 -363h-305z" />
<glyph unicode="&#xea;" horiz-adv-x="1089" d="M47 446q0 152 74.5 275t193 189.5t252.5 66.5q83 0 161 -27t146.5 -79.5t115 -141.5t57.5 -203q6 -64 0 -141h-670q7 -58 51.5 -94.5t103.5 -36.5q109 0 156 90l326 -59q-42 -139 -175.5 -224.5t-316.5 -85.5q-130 0 -238 58t-172.5 166.5t-64.5 246.5zM186 1071l275 363 h354l160 -363h-318l-47 119l-71 -119h-353zM389 590h324q-3 54 -46.5 89.5t-105.5 35.5q-55 0 -104 -33t-68 -92z" />
<glyph unicode="&#xeb;" horiz-adv-x="1089" d="M47 446q0 152 74.5 275t193 189.5t252.5 66.5q83 0 161 -27t146.5 -79.5t115 -141.5t57.5 -203q6 -64 0 -141h-670q7 -58 51.5 -94.5t103.5 -36.5q109 0 156 90l326 -59q-42 -139 -175.5 -224.5t-316.5 -85.5q-130 0 -238 58t-172.5 166.5t-64.5 246.5zM201 1217 q0 76 54.5 131t131.5 55q74 0 130 -55.5t56 -130.5q0 -73 -56 -128t-130 -55q-77 0 -131.5 54.5t-54.5 128.5zM389 590h324q-3 54 -46.5 89.5t-105.5 35.5q-55 0 -104 -33t-68 -92zM627 1217q0 75 54.5 130.5t129.5 55.5q74 0 130 -55.5t56 -130.5q0 -73 -56 -128t-130 -55 q-75 0 -129.5 54.5t-54.5 128.5z" />
<glyph unicode="&#xec;" horiz-adv-x="593" d="M6 1434h418l104 -363h-305zM86 672l45 280h444l-165 -952h-322l117 672h-119z" />
<glyph unicode="&#xed;" horiz-adv-x="593" d="M86 672l45 280h444l-165 -952h-322l117 672h-119zM285 1071l143 363h420l-258 -363h-305z" />
<glyph unicode="&#xee;" horiz-adv-x="593" d="M-14 1071l274 363h354l160 -363h-317l-47 119l-72 -119h-352zM86 672l45 280h444l-165 -952h-322l117 672h-119z" />
<glyph unicode="&#xef;" horiz-adv-x="593" d="M-8 1217q0 76 54.5 131t131.5 55q74 0 130.5 -55.5t56.5 -130.5q0 -73 -56.5 -128t-130.5 -55q-77 0 -131.5 54.5t-54.5 128.5zM86 672l45 280h444l-165 -952h-322l117 672h-119zM418 1217q0 75 54.5 130.5t129.5 55.5q74 0 130 -55.5t56 -130.5q0 -73 -56 -128t-130 -55 q-75 0 -129.5 54.5t-54.5 128.5z" />
<glyph unicode="&#xf0;" horiz-adv-x="1130" d="M51 449q0 112 37 209.5t100 164t147.5 104.5t176.5 38q84 0 141.5 -24.5t85.5 -59.5l9 10q-38 67 -142 229l-114 -51l-56 131l90 39q-86 123 -149 195h373l57 -72l119 53l57 -129l-98 -43q88 -145 145 -313t57 -330q0 -88 -19 -174t-62 -168t-104.5 -144.5t-153.5 -100.5 t-203 -38q-215 0 -354.5 134t-139.5 340zM371 453q0 -81 46 -136t120 -55q82 0 141 67t59 171q0 81 -46 135.5t-120 54.5q-82 0 -141 -66.5t-59 -170.5z" />
<glyph unicode="&#xf1;" horiz-adv-x="1114" d="M18 0l166 952h316q-11 -74 -27 -106q60 63 137.5 97t153.5 34q151 0 232 -101.5t51 -271.5l-107 -604h-322l91 524q13 76 -15.5 116t-81.5 40q-44 0 -91.5 -29.5t-78.5 -62.5l-102 -588h-322zM268 1077q5 43 10.5 74t22.5 76.5t42 74.5t70 50.5t105 21.5 q49 0 132.5 -34.5t107.5 -34.5q43 0 51 38l4 27l246 -41q-3 -30 -6.5 -51t-11.5 -54t-19 -56.5t-30 -50t-43.5 -43t-61 -27.5t-80.5 -11q-47 0 -135 33t-103 33q-43 0 -51 -39l-4 -27z" />
<glyph unicode="&#xf2;" horiz-adv-x="1099" d="M47 446q0 114 45.5 214.5t119.5 169t170 108t196 39.5q130 0 238 -58t172.5 -166.5t64.5 -246.5q0 -114 -45.5 -214.5t-119.5 -169t-170 -108t-196 -39.5q-130 0 -238 58t-172.5 166.5t-64.5 246.5zM209 1434h418l104 -363h-305zM367 453q0 -81 45.5 -136t119.5 -55 q82 0 141.5 67t59.5 171q0 81 -46 135.5t-120 54.5q-82 0 -141 -66.5t-59 -170.5z" />
<glyph unicode="&#xf3;" horiz-adv-x="1099" d="M47 446q0 114 45.5 214.5t119.5 169t170 108t196 39.5q130 0 238 -58t172.5 -166.5t64.5 -246.5q0 -114 -45.5 -214.5t-119.5 -169t-170 -108t-196 -39.5q-130 0 -238 58t-172.5 166.5t-64.5 246.5zM367 453q0 -81 45.5 -136t119.5 -55q82 0 141.5 67t59.5 171 q0 81 -46 135.5t-120 54.5q-82 0 -141 -66.5t-59 -170.5zM461 1071l143 363h420l-258 -363h-305z" />
<glyph unicode="&#xf4;" horiz-adv-x="1099" d="M47 446q0 114 45.5 214.5t119.5 169t170 108t196 39.5q130 0 238 -58t172.5 -166.5t64.5 -246.5q0 -114 -45.5 -214.5t-119.5 -169t-170 -108t-196 -39.5q-130 0 -238 58t-172.5 166.5t-64.5 246.5zM221 1071l275 363h354l160 -363h-318l-47 119l-72 -119h-352zM367 453 q0 -81 45.5 -136t119.5 -55q82 0 141.5 67t59.5 171q0 81 -46 135.5t-120 54.5q-82 0 -141 -66.5t-59 -170.5z" />
<glyph unicode="&#xf5;" horiz-adv-x="1099" d="M47 446q0 114 45.5 214.5t119.5 169t170 108t196 39.5q130 0 238 -58t172.5 -166.5t64.5 -246.5q0 -114 -45.5 -214.5t-119.5 -169t-170 -108t-196 -39.5q-130 0 -238 58t-172.5 166.5t-64.5 246.5zM227 1077q5 43 10.5 74t22.5 76.5t42 74.5t70 50.5t105 21.5 q49 0 132.5 -34.5t107.5 -34.5q43 0 51 38l4 27l246 -41q-3 -30 -6.5 -51t-11.5 -54t-19 -56.5t-30 -50t-43.5 -43t-61 -27.5t-80.5 -11q-47 0 -135 33t-103 33q-43 0 -51 -39l-4 -27zM367 453q0 -81 45.5 -136t119.5 -55q82 0 141.5 67t59.5 171q0 81 -46 135.5t-120 54.5 q-82 0 -141 -66.5t-59 -170.5z" />
<glyph unicode="&#xf6;" horiz-adv-x="1099" d="M47 446q0 114 45.5 214.5t119.5 169t170 108t196 39.5q130 0 238 -58t172.5 -166.5t64.5 -246.5q0 -114 -45.5 -214.5t-119.5 -169t-170 -108t-196 -39.5q-130 0 -238 58t-172.5 166.5t-64.5 246.5zM250 1217q0 76 54.5 131t131.5 55q74 0 130.5 -55.5t56.5 -130.5 q0 -73 -56.5 -128t-130.5 -55q-77 0 -131.5 54.5t-54.5 128.5zM367 453q0 -81 45.5 -136t119.5 -55q82 0 141.5 67t59.5 171q0 81 -46 135.5t-120 54.5q-82 0 -141 -66.5t-59 -170.5zM676 1217q0 75 54.5 130.5t129.5 55.5q74 0 130.5 -55.5t56.5 -130.5q0 -73 -56.5 -128 t-130.5 -55q-75 0 -129.5 54.5t-54.5 128.5z" />
<glyph unicode="&#xf7;" horiz-adv-x="1064" d="M94 580l53 301h914l-53 -301h-914zM301 332q0 86 60 145.5t145 59.5q86 0 146.5 -59.5t60.5 -145.5q-1 -86 -62 -145.5t-147 -59.5q-85 0 -144.5 59.5t-58.5 145.5zM442 1128q0 86 60 146.5t145 60.5q86 0 146.5 -60.5t60.5 -146.5q-2 -85 -62.5 -144.5t-146.5 -59.5 q-85 0 -144.5 59.5t-58.5 144.5z" />
<glyph unicode="&#xf8;" horiz-adv-x="1099" d="M-43 -25l178 187q-88 122 -88 284q0 114 45.5 214.5t119.5 169t170 108t196 39.5q145 0 266 -78l74 78h231l-184 -191q88 -122 88 -280q0 -114 -45.5 -214.5t-119.5 -169t-170 -108t-196 -39.5q-144 0 -264 74l-72 -74h-229zM367 453q0 -31 4 -45l260 270q-30 12 -64 12 q-82 0 -141 -66.5t-59 -170.5zM471 272q30 -10 61 -10q82 0 141.5 67t59.5 171q0 17 -4 41z" />
<glyph unicode="&#xf9;" horiz-adv-x="1073" d="M76 457l86 495h323l-90 -514q-13 -80 21 -123t100 -43q48 0 83 34t48 108l94 538h324l-111 -637q-27 -154 -142.5 -247t-307.5 -93q-157 0 -263.5 66.5t-147 174.5t-17.5 241zM248 1434h418l104 -363h-305z" />
<glyph unicode="&#xfa;" horiz-adv-x="1073" d="M76 457l86 495h323l-90 -514q-13 -80 21 -123t100 -43q48 0 83 34t48 108l94 538h324l-111 -637q-27 -154 -142.5 -247t-307.5 -93q-157 0 -263.5 66.5t-147 174.5t-17.5 241zM485 1071l144 363h420l-258 -363h-306z" />
<glyph unicode="&#xfb;" horiz-adv-x="1073" d="M76 457l86 495h323l-90 -514q-13 -80 21 -123t100 -43q48 0 83 34t48 108l94 538h324l-111 -637q-27 -154 -142.5 -247t-307.5 -93q-157 0 -263.5 66.5t-147 174.5t-17.5 241zM211 1071l274 363h355l159 -363h-317l-47 119l-72 -119h-352z" />
<glyph unicode="&#xfc;" horiz-adv-x="1073" d="M76 457l86 495h323l-90 -514q-13 -80 21 -123t100 -43q48 0 83 34t48 108l94 538h324l-111 -637q-27 -154 -142.5 -247t-307.5 -93q-157 0 -263.5 66.5t-147 174.5t-17.5 241zM233 1217q0 76 55 131t132 55q74 0 130 -55.5t56 -130.5q0 -73 -56 -128t-130 -55 q-77 0 -132 54.5t-55 128.5zM659 1217q0 75 55 130.5t130 55.5q74 0 130 -55.5t56 -130.5q0 -73 -56 -128t-130 -55q-75 0 -130 54.5t-55 128.5z" />
<glyph unicode="&#xfd;" horiz-adv-x="1114" d="M74 391l98 561h322l-86 -508q-12 -74 13.5 -115.5t84.5 -41.5q42 0 86 25t78 67l102 573h322l-179 -1018q-11 -62 -31.5 -110.5t-57.5 -92t-98.5 -67.5t-143.5 -24h-338l49 280h217q82 0 96 70l23 114q-46 -47 -116.5 -75.5t-143.5 -28.5q-157 0 -242.5 116.5 t-54.5 274.5zM471 1071l143 363h420l-258 -363h-305z" />
<glyph unicode="&#xfe;" d="M-43 -360l311 1794h326l-113 -596q27 50 98.5 94.5t165.5 44.5q168 0 279 -126.5t111 -322.5q0 -123 -40 -227.5t-107 -175.5t-156 -110.5t-187 -39.5q-97 0 -168.5 44.5t-107.5 101.5l-88 -481h-324zM436 453q0 -81 48 -136t122 -55q83 0 145 67t62 171q0 80 -49 135 t-123 55q-83 0 -144 -66.5t-61 -170.5z" />
<glyph unicode="&#xff;" horiz-adv-x="1114" d="M74 391l98 561h322l-86 -508q-12 -74 13.5 -115.5t84.5 -41.5q42 0 86 25t78 67l102 573h322l-179 -1018q-11 -62 -31.5 -110.5t-57.5 -92t-98.5 -67.5t-143.5 -24h-338l49 280h217q82 0 96 70l23 114q-46 -47 -116.5 -75.5t-143.5 -28.5q-157 0 -242.5 116.5 t-54.5 274.5zM281 1217q0 76 54.5 131t131.5 55q74 0 130 -55.5t56 -130.5q0 -73 -56 -128t-130 -55q-77 0 -131.5 54.5t-54.5 128.5zM707 1217q0 75 54.5 130.5t129.5 55.5q74 0 130 -55.5t56 -130.5q0 -73 -56 -128t-130 -55q-75 0 -129.5 54.5t-54.5 128.5z" />
<glyph unicode="&#x152;" horiz-adv-x="2146" d="M96 635q0 160 56 304t157.5 254.5t256.5 175.5t341 65h1331l-51 -306h-753l-41 -245h403l-53 -303h-404l-47 -275h752l-51 -305h-1256q-196 0 -343.5 86t-222.5 229t-75 320zM453 631q0 -153 90.5 -239.5t220.5 -86.5h182l144 823h-177q-106 0 -194 -40.5t-145.5 -109 t-89 -158t-31.5 -189.5z" />
<glyph unicode="&#x153;" horiz-adv-x="1765" d="M47 446q0 152 73 275t191 189.5t252 66.5q102 0 189.5 -41t150.5 -119q132 160 340 160q83 0 161 -27t146 -79.5t114.5 -141.5t57.5 -203q6 -64 0 -141h-669q7 -58 51.5 -94.5t103.5 -36.5q109 0 156 90l326 -59q-42 -140 -173 -225t-313 -85q-103 0 -197.5 43 t-140.5 115q-59 -75 -152 -116.5t-192 -41.5q-130 0 -238 58t-172.5 166.5t-64.5 246.5zM367 453q0 -81 45.5 -136t119.5 -55q82 0 141.5 67t59.5 171q0 81 -46 135.5t-120 54.5q-82 0 -141 -66.5t-59 -170.5zM1065 590h324q-3 54 -46.5 89.5t-105.5 35.5q-55 0 -104 -33 t-68 -92z" />
<glyph unicode="&#x178;" horiz-adv-x="1382" d="M154 1434h391l198 -482h15l366 482h428l-673 -852l-103 -582h-342l101 575zM428 1698q0 76 54.5 131t131.5 55q74 0 130.5 -55.5t56.5 -130.5q0 -73 -56.5 -127.5t-130.5 -54.5q-77 0 -131.5 54t-54.5 128zM854 1698q0 75 54.5 130.5t129.5 55.5q74 0 130.5 -55.5 t56.5 -130.5q0 -73 -56.5 -127.5t-130.5 -54.5q-75 0 -129.5 54t-54.5 128z" />
<glyph unicode="&#x2c6;" horiz-adv-x="874" d="M135 1071l275 363h354l160 -363h-318l-47 119l-72 -119h-352z" />
<glyph unicode="&#x2dc;" horiz-adv-x="868" d="M154 1077q5 43 10.5 74t22.5 76.5t41.5 74.5t69.5 50.5t105 21.5q49 0 132.5 -34.5t107.5 -34.5q43 0 51 38l4 27l246 -41q-3 -30 -6.5 -51t-11.5 -54t-19 -56.5t-30 -50t-43.5 -43t-61 -27.5t-80.5 -11q-47 0 -134.5 33t-102.5 33q-44 0 -52 -39l-4 -27z" />
<glyph unicode="&#x2000;" horiz-adv-x="1014" />
<glyph unicode="&#x2001;" horiz-adv-x="2028" />
<glyph unicode="&#x2002;" horiz-adv-x="1014" />
<glyph unicode="&#x2003;" horiz-adv-x="2028" />
<glyph unicode="&#x2004;" horiz-adv-x="676" />
<glyph unicode="&#x2005;" horiz-adv-x="507" />
<glyph unicode="&#x2006;" horiz-adv-x="338" />
<glyph unicode="&#x2007;" horiz-adv-x="338" />
<glyph unicode="&#x2008;" horiz-adv-x="253" />
<glyph unicode="&#x2009;" horiz-adv-x="405" />
<glyph unicode="&#x200a;" horiz-adv-x="112" />
<glyph unicode="&#x2010;" horiz-adv-x="512" d="M-51 354l55 314h567l-55 -314h-567z" />
<glyph unicode="&#x2011;" horiz-adv-x="512" d="M-51 354l55 314h567l-55 -314h-567z" />
<glyph unicode="&#x2012;" horiz-adv-x="512" d="M-51 354l55 314h567l-55 -314h-567z" />
<glyph unicode="&#x2013;" horiz-adv-x="1024" d="M31 420l49 280h936l-49 -280h-936z" />
<glyph unicode="&#x2014;" horiz-adv-x="1869" d="M31 420l47 280h1784l-47 -280h-1784z" />
<glyph unicode="&#x2018;" horiz-adv-x="604" d="M162 1020q0 31 13.5 71.5t37.5 71.5l231 295l261 -45l-177 -258q54 -61 54 -139q0 -82 -59 -143.5t-146 -61.5q-92 0 -153.5 62.5t-61.5 146.5z" />
<glyph unicode="&#x2019;" horiz-adv-x="610" d="M139 856l176 258q-53 59 -53 139q0 82 59 143.5t146 61.5q92 0 153.5 -62.5t61.5 -146.5q0 -31 -13.5 -71.5t-37.5 -71.5l-232 -295z" />
<glyph unicode="&#x201a;" horiz-adv-x="587" d="M-86 -215l176 258q-53 59 -53 139q0 82 59 143.5t146 61.5q92 0 153.5 -62.5t61.5 -146.5q0 -31 -13.5 -71.5t-37.5 -71.5l-232 -295z" />
<glyph unicode="&#x201c;" horiz-adv-x="1085" d="M162 1020q0 31 13.5 71.5t37.5 71.5l231 295l261 -45l-177 -258q54 -61 54 -139q0 -82 -59 -143.5t-146 -61.5q-92 0 -153.5 62.5t-61.5 146.5zM643 1020q0 31 13.5 71.5t37.5 71.5l232 295l260 -45l-176 -258q53 -59 53 -139q0 -82 -59 -143.5t-146 -61.5 q-92 0 -153.5 62.5t-61.5 146.5z" />
<glyph unicode="&#x201d;" horiz-adv-x="1091" d="M139 856l176 258q-53 59 -53 139q0 82 59 143.5t146 61.5q92 0 153.5 -62.5t61.5 -146.5q0 -31 -13.5 -71.5t-37.5 -71.5l-232 -295zM621 856l176 258q-54 61 -54 139q0 82 59 143.5t146 61.5q92 0 153.5 -62.5t61.5 -146.5q0 -32 -14 -72t-39 -71l-229 -295z" />
<glyph unicode="&#x201e;" horiz-adv-x="1071" d="M-86 -215l176 258q-53 59 -53 139q0 82 59 143.5t146 61.5q92 0 153.5 -62.5t61.5 -146.5q0 -31 -13.5 -71.5t-37.5 -71.5l-232 -295zM397 -215l176 258q-53 59 -53 139q0 82 59 143.5t146 61.5q92 0 153.5 -62.5t61.5 -146.5q0 -32 -14 -72t-39 -71l-230 -295z" />
<glyph unicode="&#x2022;" horiz-adv-x="768" d="M168 735q0 108 74.5 184t181.5 76t182.5 -76.5t75.5 -183.5t-75.5 -182.5t-182.5 -75.5t-181.5 75.5t-74.5 182.5z" />
<glyph unicode="&#x2026;" horiz-adv-x="2045" d="M37 180q0 86 59 146.5t144 60.5q87 0 146.5 -60t59.5 -147q0 -85 -59.5 -145t-146.5 -60q-85 0 -144 60t-59 145zM770 180q0 86 60 146.5t145 60.5q86 0 146.5 -60.5t60.5 -146.5q0 -85 -60.5 -145t-146.5 -60q-85 0 -145 60t-60 145zM1505 180q0 86 59 146.5t144 60.5 q87 0 147 -60t60 -147q0 -85 -60 -145t-147 -60q-85 0 -144 60t-59 145z" />
<glyph unicode="&#x202f;" horiz-adv-x="405" />
<glyph unicode="&#x2039;" horiz-adv-x="729" d="M68 508l307 371h352l-303 -392l168 -393h-332z" />
<glyph unicode="&#x203a;" horiz-adv-x="722" d="M6 94l303 393l-170 392h312l215 -392l-310 -393h-350z" />
<glyph unicode="&#x205f;" horiz-adv-x="507" />
<glyph unicode="&#x20ac;" horiz-adv-x="1662" d="M78 446l37 220h118q3 47 9 102h-109l39 221h127q87 214 269.5 340.5t408.5 126.5q124 0 235 -38t197.5 -109t142.5 -179t70 -241h-385q-41 237 -270 237q-167 0 -267 -137h340l-39 -221h-391q-9 -50 -12 -102h387l-39 -220h-309q74 -141 254 -141q102 0 181.5 65 t115.5 173h422q-55 -176 -167 -305.5t-258 -196t-308 -66.5q-237 0 -401.5 128.5t-219.5 342.5h-178z" />
<glyph unicode="&#x2122;" horiz-adv-x="2306" d="M227 1137l52 297h903l-52 -297h-299l-102 -588h-309l102 588h-295zM1145 549l155 885h396l63 -357l191 357h391l-154 -885h-313l88 504l-176 -316h-176l-72 312l-86 -500h-307z" />
<glyph unicode="&#x25fc;" horiz-adv-x="952" d="M0 0v952h952v-952h-952z" />
<glyph unicode="&#xfb01;" horiz-adv-x="1241" d="M78 672l47 280h143l43 242q23 138 101.5 201t210.5 63q31 0 91 -3.5t104 -6.5l44 -4l-51 -303q-90 10 -115 10q-74 0 -84 -64l-22 -135h635l-166 -952h-322l117 672h-313l-117 -672h-320l115 672h-141zM891 1262q0 82 57 139t139 57t139.5 -57t57.5 -139t-57.5 -139.5 t-139.5 -57.5t-139 57.5t-57 139.5z" />
<glyph unicode="&#xfb02;" horiz-adv-x="1241" d="M78 672l47 280h143l43 242q23 138 101.5 201t210.5 63q31 0 91 -3.5t104 -6.5l44 -4l-51 -303q-90 10 -115 10q-74 0 -84 -64l-22 -135h309l82 482h324l-248 -1434h-320l115 672h-311l-117 -672h-320l115 672h-141z" />
<glyph unicode="&#xfb03;" horiz-adv-x="1873" d="M78 672l47 280h143l43 242q23 138 101.5 201t210.5 63q31 0 91 -3.5t104 -6.5l44 -4l-51 -303q-90 10 -115 10q-74 0 -84 -64l-22 -135h311l43 242q23 138 101 201t210 63q31 0 91 -3.5t104 -6.5l45 -4l-51 -303q-90 10 -115 10q-74 0 -84 -64l-22 -135h635l-166 -952 h-322l117 672h-313l-117 -672h-320l115 672h-311l-117 -672h-320l115 672h-141zM1524 1262q0 82 57 139t139 57t139.5 -57t57.5 -139t-57.5 -139.5t-139.5 -57.5t-139 57.5t-57 139.5z" />
<glyph unicode="&#xfb04;" horiz-adv-x="1873" d="M78 672l47 280h143l43 242q23 138 101.5 201t210.5 63q31 0 91 -3.5t104 -6.5l44 -4l-51 -303q-90 10 -115 10q-74 0 -84 -64l-22 -135h311l43 242q23 138 101 201t210 63q31 0 91 -3.5t104 -6.5l45 -4l-51 -303q-90 10 -115 10q-74 0 -84 -64l-22 -135h309l82 482h323 l-247 -1434h-320l115 672h-311l-117 -672h-320l115 672h-311l-117 -672h-320l115 672h-141z" />
</font>
</defs>
</svg>
