<?xml version="1.0" standalone="no"?>
<!DOCTYPE svg PUBLIC "-//W3C//DTD SVG 1.1//EN" "http://www.w3.org/Graphics/SVG/1.1/DTD/svg11.dtd" >
<svg xmlns="http://www.w3.org/2000/svg" xmlns:xlink="http://www.w3.org/1999/xlink" version="1.1">
<metadata></metadata>
<defs>
<font id="regular_problack_italic" horiz-adv-x="1185" >
<font-face units-per-em="2048" ascent="1536" descent="-512" />
<missing-glyph horiz-adv-x="409" />
<glyph horiz-adv-x="0" />
<glyph horiz-adv-x="682" />
<glyph unicode=" "  horiz-adv-x="409" />
<glyph unicode="&#x09;" horiz-adv-x="409" />
<glyph unicode="&#xa0;" horiz-adv-x="409" />
<glyph unicode="!" horiz-adv-x="651" d="M59 205q0 95 68 163t162 68q97 0 165 -68t68 -163t-68 -162.5t-165 -67.5q-94 0 -162 67.5t-68 162.5zM143 496l133 938h437l-201 -938h-369z" />
<glyph unicode="&#x22;" horiz-adv-x="1112" d="M170 815l106 619h404l-107 -619h-403zM659 815l107 619h403l-106 -619h-404z" />
<glyph unicode="#" horiz-adv-x="1138" d="M70 430l45 246h176l28 164h-176l41 245h178l50 295h254l-52 -295h121l49 295h254l-51 -295h180l-43 -245h-178l-28 -164h178l-43 -246h-181l-49 -297h-254l52 297h-121l-49 -297h-254l51 297h-178zM545 676h121l26 164h-121z" />
<glyph unicode="$" horiz-adv-x="1294" d="M29 254l250 293q82 -105 200 -168l76 203l-88 45q-142 69 -210.5 171t-68.5 218q0 137 70.5 238t193.5 152.5t283 51.5q57 0 139 -14l58 153h190l-78 -208q191 -85 275 -207l-268 -254q-57 73 -131 123l-68 -177l35 -16q176 -88 250.5 -190t74.5 -244q0 -62 -17 -122 t-57.5 -120t-100.5 -105.5t-154.5 -73.5t-210.5 -28q-50 0 -148 13l-65 -178h-191l82 223q-113 44 -196.5 106.5t-124.5 114.5zM637 1034q0 -46 55 -80l58 156h-2q-58 0 -84.5 -23t-26.5 -53zM649 328h4q57 0 90 24.5t33 61.5q0 29 -14.5 48.5t-46.5 39.5z" />
<glyph unicode="%" horiz-adv-x="1603" d="M176 338l1204 922l131 -166l-1210 -932zM188 1114q0 145 107 244.5t258 99.5t258 -99.5t107 -244.5t-107 -244.5t-258 -99.5t-258 99.5t-107 244.5zM463 1114q0 -42 26.5 -70t63.5 -28t63.5 28t26.5 70q0 41 -26.5 69.5t-63.5 28.5t-63.5 -28.5t-26.5 -69.5zM780 319 q0 145 107 245t258 100q150 0 257 -100t107 -245t-106.5 -244.5t-257.5 -99.5t-258 99.5t-107 244.5zM1055 319q0 -42 26.5 -70t63.5 -28t63.5 28t26.5 70q0 41 -26.5 70t-63.5 29t-63.5 -29t-26.5 -70z" />
<glyph unicode="&#x26;" horiz-adv-x="1431" d="M39 387q0 131 80 236.5t221 173.5l-10 14q-88 126 -88 252q0 71 30 139.5t86.5 126.5t149.5 93.5t207 35.5q207 0 319.5 -99.5t112.5 -250.5q0 -93 -37 -166l-346 6q22 59 22 90q0 33 -20 54.5t-53 21.5q-32 0 -55 -22t-23 -54q0 -37 39 -86l198 -260q45 63 78 135h480 q-64 -107 -156.5 -235.5t-157.5 -208.5l242 -299l-15 -84h-411l-84 109q-69 -69 -170 -101.5t-195 -32.5q-188 0 -316 116t-128 296zM432 418q0 -33 24 -58.5t60 -25.5q37 0 67 18.5t44 36.5l-109 139q-86 -45 -86 -110z" />
<glyph unicode="'" horiz-adv-x="622" d="M170 815l106 619h404l-107 -619h-403z" />
<glyph unicode="(" horiz-adv-x="745" d="M66.5 355q-11.5 178 31.5 350q50 203 162 379.5t285 349.5h350l-6 -33q-121 -119 -235 -326t-167 -399q-60 -225 -37 -474.5t123 -471.5l-6 -33h-301q-87 152 -137.5 316t-62 342z" />
<glyph unicode=")" horiz-adv-x="741" d="M-119 -303l6 33q121 119 235 326t167 399q60 225 37 474.5t-123 471.5l6 33h301q87 -152 137.5 -316t62 -342t-31.5 -350q-50 -203 -162 -379.5t-285 -349.5h-350z" />
<glyph unicode="*" horiz-adv-x="1175" d="M143 858q10 65 70.5 101t148.5 36l80 2l-73 27q-84 32 -128 86t-32 119q12 69 64 102.5t118 22.5q57 -10 191 -170q-9 46 -11.5 100.5t2.5 79.5q10 66 66 102.5t125 24.5q70 -12 109.5 -65.5t27.5 -118.5q-5 -30 -24 -79t-43 -87q177 104 235 92q65 -11 103 -60t26 -118 q-12 -66 -71 -101.5t-148 -35.5l-80 -3l74 -26q84 -32 128 -85.5t32 -119.5q-12 -69 -64.5 -102.5t-118.5 -22.5q-34 7 -80.5 51t-109.5 119q20 -107 8 -180q-10 -66 -66 -102.5t-127 -24.5q-69 12 -108 65.5t-27 118.5q5 29 24.5 78.5t43.5 87.5q-175 -102 -236 -92 q-65 11 -103 60t-26 118zM539 979q-9 -55 23 -101t87 -55q53 -9 99 24t55 87q9 53 -23.5 100t-85.5 56q-54 9 -100 -23.5t-55 -87.5z" />
<glyph unicode="+" horiz-adv-x="1064" d="M74 532l65 377h281l51 285h379l-51 -285h278l-65 -377h-279l-53 -296h-379l53 296h-280z" />
<glyph unicode="," horiz-adv-x="618" d="M-47 -182l131 239q-53 66 -53 150q0 93 65.5 161t163.5 68q102 0 172 -70t70 -163q0 -94 -82 -199l-221 -278z" />
<glyph unicode="-" horiz-adv-x="512" d="M-18 365l57 348h512l-59 -348h-510z" />
<glyph unicode="." horiz-adv-x="604" d="M29 205q0 96 66.5 163.5t160.5 67.5q98 0 165.5 -67t67.5 -164q0 -96 -67.5 -163t-165.5 -67q-94 0 -160.5 67.5t-66.5 162.5z" />
<glyph unicode="/" horiz-adv-x="944" d="M-20 0l722 1434h349l-729 -1434h-342z" />
<glyph unicode="0" horiz-adv-x="1146" d="M57 573q0 99 17 195q59 325 223 507.5t385 182.5t355 -153.5t134 -444.5q0 -103 -16 -194q-59 -325 -223 -508t-385 -183t-355.5 153.5t-134.5 444.5zM457 559q0 -180 108 -180q66 0 112 81.5t71 203.5q24 126 24 219q0 172 -110 172q-37 0 -68.5 -26t-54 -71.5t-38 -96 t-26.5 -109.5q-18 -95 -18 -193z" />
<glyph unicode="1" horiz-adv-x="1146" d="M47 0l59 360h263l135 715h-238l66 359h647l-197 -1074h262l-61 -360h-936z" />
<glyph unicode="2" horiz-adv-x="1146" d="M-25 0l78 401l504 316q121 76 165 134t44 126q0 50 -31 78t-86 28t-86 -35.5t-31 -97.5q0 -36 9 -80l-379 -30q-27 100 -27 157q0 86 32 166t94 147t165 107.5t233 40.5q110 0 199.5 -27t148.5 -71.5t99.5 -104t58 -121.5t17.5 -126q0 -88 -27.5 -165.5t-68.5 -134.5 t-109 -113t-128.5 -94t-146.5 -85l-90 -49h471l-67 -367h-1041z" />
<glyph unicode="3" horiz-adv-x="1146" d="M35 385q0 47 10 102h416q-15 -43 -15 -73q0 -39 20.5 -67t63.5 -28q50 0 81.5 33.5t31.5 96.5q0 38 -15.5 65t-42.5 40.5t-54.5 19.5t-59.5 6q-71 0 -119 -7l72 340l278 160h-512l62 361h967l-70 -406l-350 -197q117 -31 193.5 -124.5t76.5 -235.5q0 -224 -154 -360 t-389 -136q-237 0 -364 115t-127 295z" />
<glyph unicode="4" horiz-adv-x="1146" d="M-27 285l60 354l614 795h498l-150 -801h144l-64 -348h-141l-53 -285h-400l54 285h-562zM399 633h197l63 336z" />
<glyph unicode="5" horiz-adv-x="1146" d="M45 391q0 64 6 98h432q-10 -57 -10 -88q0 -24 3.5 -39.5t20.5 -29t48 -13.5q59 0 90 56t31 147q0 46 -22.5 78.5t-70.5 32.5q-29 0 -61 -13.5t-51 -33.5l-328 84l143 764h922l-74 -367h-553l-26 -139l6 -2q27 14 69.5 22t71.5 8q191 0 301.5 -114t110.5 -301 q0 -83 -21.5 -163.5t-68 -153.5t-111.5 -128t-159 -88t-205 -33q-132 0 -229 31t-154 88t-84 131t-27 166z" />
<glyph unicode="6" horiz-adv-x="1146" d="M49 508q0 110 31.5 217t82.5 196.5t129.5 183.5t157.5 168.5t181 160.5h569q-31 -22 -134.5 -101.5t-263 -215t-239.5 -226.5l19 -6q56 28 139 28q79 0 152 -28.5t131.5 -80.5t93.5 -134t35 -181q0 -144 -75.5 -263t-200 -185t-269.5 -66q-128 0 -232 44t-170 118.5 t-101.5 169.5t-35.5 201zM457 446q0 -55 33.5 -89.5t93.5 -34.5q61 0 102 48t41 113q0 58 -32 93.5t-91 35.5q-68 0 -107.5 -51t-39.5 -115z" />
<glyph unicode="7" horiz-adv-x="1146" d="M86 0l657 1067h-579l63 367h1033l-68 -361l-598 -1073h-508z" />
<glyph unicode="8" horiz-adv-x="1146" d="M35 408q0 135 80 234.5t211 143.5q-74 40 -116 116.5t-42 156.5q0 175 141 287t361 112q120 0 217.5 -33t157.5 -87.5t92 -122.5t32 -142q0 -73 -23.5 -139t-83 -125t-147.5 -86q88 -46 135.5 -128t47.5 -177q0 -128 -74 -230t-197.5 -157.5t-271.5 -55.5 q-124 0 -225.5 37.5t-164.5 100t-96.5 138.5t-33.5 157zM444 426q0 -47 30.5 -80t92.5 -33t100 40.5t38 97.5q0 47 -30.5 79.5t-92.5 32.5t-100 -40.5t-38 -96.5zM547 997q0 -43 27.5 -71.5t80.5 -28.5t86 34.5t33 86.5q0 43 -27 71.5t-79 28.5t-86.5 -35t-34.5 -86z" />
<glyph unicode="9" horiz-adv-x="1146" d="M31 0q31 22 134.5 101.5t263 215t239.5 226.5l-19 6q-58 -29 -137 -29t-152 28.5t-131.5 81t-93.5 135t-35 181.5q0 144 74 262.5t197 184t268 65.5q128 0 232.5 -43.5t171.5 -118t103 -169.5t36 -201q0 -110 -31.5 -217t-82.5 -196.5t-129.5 -183.5t-157.5 -168.5 t-181 -160.5h-569zM504 950q0 -58 32 -93.5t91 -35.5q68 0 107.5 51t39.5 115q0 56 -33.5 90.5t-93.5 34.5q-61 0 -102 -48.5t-41 -113.5z" />
<glyph unicode=":" horiz-adv-x="624" d="M33 205q0 96 66.5 163.5t160.5 67.5q98 0 166 -67t68 -164q0 -96 -68 -163t-166 -67q-94 0 -160.5 67.5t-66.5 162.5zM127 733q0 97 66.5 164.5t160.5 67.5q98 0 166 -67.5t68 -164.5q0 -95 -68 -162t-166 -67q-94 0 -160.5 67t-66.5 162z" />
<glyph unicode=";" horiz-adv-x="632" d="M-39 -182l131 239q-53 66 -53 150q0 93 65.5 161t163.5 68q102 0 172 -70t70 -163q0 -94 -82 -199l-221 -278zM123 733q0 97 66.5 164.5t160.5 67.5q98 0 166 -67.5t68 -164.5q0 -95 -68 -162t-166 -67q-94 0 -160.5 67t-66.5 162z" />
<glyph unicode="&#x3c;" horiz-adv-x="1525" d="M100 750l695 698l297 -246l-254 -284h667l-63 -386h-684l153 -278l-299 -256z" />
<glyph unicode="=" horiz-adv-x="1064" d="M33 293l63 377h938l-65 -377h-936zM115 768l65 377h938l-65 -377h-938z" />
<glyph unicode="&#x3e;" horiz-adv-x="1527" d="M109 532l65 386h684l-156 276l302 254l509 -750l-694 -700l-297 250l256 284h-669z" />
<glyph unicode="?" horiz-adv-x="1110" d="M158 969q2 105 32.5 189.5t79 139.5t114 92t134 52.5t141.5 15.5q109 0 199 -35.5t148 -96t90 -139.5t32 -167q0 -325 -319 -436l-41 -88h-371l56 321l12 2q129 21 188.5 69t59.5 101q0 38 -24 63t-60 25q-52 0 -74.5 -28t-22.5 -68v-12h-374zM317 205q0 95 68 163 t162 68q97 0 165 -68t68 -163t-68 -162.5t-165 -67.5q-94 0 -162 67.5t-68 162.5z" />
<glyph unicode="@" horiz-adv-x="2007" d="M84 426q0 193 58 357t156 278t228 195t273.5 119t292.5 38q135 0 260.5 -31t236 -95.5t192.5 -155.5t129.5 -219t47.5 -279q0 -132 -35 -249t-102 -209.5t-175.5 -146t-246.5 -53.5q-58 0 -108 12t-80.5 26.5t-59.5 38.5t-39.5 35.5t-24.5 29.5q-6 -11 -12 -21.5t-27 -35 t-45.5 -41t-67 -30.5t-91.5 -14q-161 0 -269 126.5t-108 322.5q0 126 40.5 234t107.5 179.5t153 111.5t178 40q59 0 110 -16.5t84 -42.5t53 -48.5t32 -43.5q-6 42 8 127h371l-125 -725q-3 -22 7 -37t36 -15q68 0 123 66t83.5 166.5t28.5 210.5q0 122 -36.5 222t-99.5 167.5 t-148.5 114t-181.5 67.5t-201 21q-118 0 -231.5 -30t-215.5 -94.5t-179.5 -155.5t-123 -221.5t-45.5 -285.5q0 -148 52.5 -270t146 -203t222 -125.5t279.5 -44.5q92 0 192.5 27.5t176.5 70.5l264 -71q-122 -97 -301 -153t-352 -56q-259 0 -462 102t-316 288t-113 425z M840 457q0 -59 37 -104.5t98 -45.5q66 0 116 54t50 147q0 59 -37 104t-98 45q-66 0 -116 -53.5t-50 -146.5z" />
<glyph unicode="A" horiz-adv-x="1351" d="M-76 0l674 1434h489l187 -1434h-414l-29 240h-356l-108 -240h-443zM612 600h197l-31 356h-8z" />
<glyph unicode="B" horiz-adv-x="1261" d="M43 0l244 1434h501q107 0 195.5 -31t145 -82.5t87.5 -114.5t31 -129q0 -74 -24 -136.5t-64 -103.5t-84 -68t-92 -40q107 -35 166 -120t59 -181q0 -191 -151 -309.5t-398 -118.5h-616zM508 346h106q74 0 123 30.5t49 92.5q0 42 -33.5 74t-105.5 32h-100zM602 895h111 q55 0 88 30.5t33 73.5q0 36 -26 62t-71 26h-102z" />
<glyph unicode="C" horiz-adv-x="1585" d="M92 690q0 162 64 306t170.5 244.5t248 159t293.5 58.5q186 0 343 -76.5t257 -212.5t125 -307h-465q-22 87 -91 143t-179 56q-139 0 -235.5 -109.5t-96.5 -273.5q0 -77 30.5 -144.5t98 -114t160.5 -46.5q103 0 183 52t110 150h477q-26 -138 -99.5 -253t-178 -190 t-232 -116t-262.5 -41q-206 0 -371 93.5t-257.5 257t-92.5 364.5z" />
<glyph unicode="D" horiz-adv-x="1501" d="M41 0l250 1434h512q156 0 286.5 -49t219 -135.5t137.5 -206.5t49 -261q0 -163 -59.5 -307.5t-164.5 -249t-256 -165t-327 -60.5h-647zM508 362h151q188 0 301 110.5t113 287.5q0 84 -30.5 147.5t-80.5 98t-103.5 51t-108.5 16.5h-117z" />
<glyph unicode="E" horiz-adv-x="1329" d="M43 0l244 1434h1124l-59 -359h-721l-27 -166h365l-64 -356h-362l-33 -193h737l-61 -360h-1143z" />
<glyph unicode="F" horiz-adv-x="1249" d="M43 0l244 1434h1104l-60 -359h-700l-33 -203h539l-62 -358h-543l-86 -514h-403z" />
<glyph unicode="G" horiz-adv-x="1591" d="M92 684q0 163 64.5 308.5t171.5 246.5t248.5 160t293.5 59q186 0 345.5 -76.5t262.5 -212.5t128 -307h-467q-21 86 -95.5 142.5t-183.5 56.5q-139 0 -236.5 -110.5t-97.5 -274.5q0 -132 85.5 -230t232.5 -98q104 0 173.5 42.5t104.5 98.5h-305l55 293h703l-137 -782h-299 l32 164q-44 -74 -153.5 -131.5t-259.5 -57.5q-140 0 -262.5 51t-211.5 142.5t-140.5 225t-51.5 290.5z" />
<glyph unicode="H" horiz-adv-x="1488" d="M41 0l250 1434h403l-90 -525h432l88 525h408l-248 -1434h-405l92 532h-430l-92 -532h-408z" />
<glyph unicode="I" horiz-adv-x="653" d="M43 0l246 1434h405l-243 -1434h-408z" />
<glyph unicode="J" horiz-adv-x="1288" d="M37 575l14 82h402l-13 -69q-6 -24 -6 -48q0 -15 2 -30q6 -41 20.5 -74t50.5 -54.5t87 -21.5q69 0 122 43.5t70 143.5l150 887h407l-172 -1000q-35 -205 -189 -332t-402 -127q-128 0 -237.5 44t-185 121t-109.5 190q-20 69 -20 144q0 49 9 101z" />
<glyph unicode="K" horiz-adv-x="1378" d="M41 0l250 1434h403l-92 -519h76l389 519h498l-582 -717l311 -717h-467l-217 557h-63l-98 -557h-408z" />
<glyph unicode="L" horiz-adv-x="1126" d="M43 0l244 1434h407l-184 -1074h575l-61 -360h-981z" />
<glyph unicode="M" horiz-adv-x="1718" d="M43 0l244 1434h522l102 -598l303 598h547l-245 -1434h-402l139 819l-268 -512h-313l-92 512l-140 -819h-397z" />
<glyph unicode="N" horiz-adv-x="1488" d="M41 0l250 1434h563l145 -738l136 738h397l-248 -1434h-487l-193 918l-166 -918h-397z" />
<glyph unicode="O" horiz-adv-x="1595" d="M92 690q0 162 64 306t170 244.5t247 159t293 58.5q207 0 373 -94.5t258 -257t92 -361.5q0 -162 -63.5 -306t-169.5 -245t-247.5 -160t-293.5 -59q-206 0 -371.5 93.5t-258.5 257t-93 364.5zM526 678q0 -130 78 -217.5t219 -87.5q139 0 234.5 111t95.5 276q0 129 -77 215 t-218 86q-139 0 -235.5 -109.5t-96.5 -273.5z" />
<glyph unicode="P" horiz-adv-x="1245" d="M41 0l248 1434h424q273 0 426 -137t153 -355q0 -245 -169.5 -394t-454.5 -149h-154l-70 -399h-403zM573 760h64q240 0 240 174q0 68 -56.5 104.5t-142.5 36.5h-49z" />
<glyph unicode="Q" horiz-adv-x="1599" d="M92 690q0 162 64 306t170 244.5t247 159t293 58.5q207 0 373 -94.5t258 -257t92 -361.5q0 -160 -61 -301t-170 -247l4 -7q18 -47 113 -47q30 0 100 17l-57 -348q-116 -17 -220 -17q-255 0 -325 199q-81 -19 -158 -19q-206 0 -371.5 93.5t-258.5 257t-93 364.5zM526 678 q0 -130 78 -217.5t219 -87.5q139 0 234.5 111t95.5 276q0 129 -77 215t-218 86q-139 0 -235.5 -109.5t-96.5 -273.5z" />
<glyph unicode="R" horiz-adv-x="1370" d="M41 0l248 1434h530q116 0 210 -26.5t156.5 -70.5t105 -104t61 -125.5t18.5 -136.5q0 -155 -76.5 -268.5t-228.5 -170.5l242 -532h-441l-186 459h-154l-77 -459h-408zM590 827h174q78 0 126 34t48 100q0 45 -35.5 79.5t-111.5 34.5l-152 -2z" />
<glyph unicode="S" horiz-adv-x="1241" d="M2 254l250 293q66 -82 171 -150.5t204 -68.5q57 0 90 24.5t33 61.5q0 40 -24.5 61.5t-94.5 56.5l-191 95q-141 69 -209.5 170.5t-68.5 218.5q0 137 70.5 238t193.5 152.5t283 51.5q167 0 337.5 -82.5t245.5 -193.5l-268 -254q-74 94 -154 138t-149 44q-58 0 -84.5 -23 t-26.5 -53q0 -52 78 -90l172 -86q176 -88 251 -190t75 -244q0 -61 -17 -121.5t-58 -120.5t-101 -105.5t-154.5 -73.5t-210.5 -28q-100 0 -194.5 21.5t-163.5 52.5t-129.5 71t-96 72.5t-59.5 61.5z" />
<glyph unicode="T" horiz-adv-x="1259" d="M131 1059l64 375h1208l-66 -375h-399l-184 -1059h-402l183 1059h-404z" />
<glyph unicode="U" horiz-adv-x="1374" d="M125 575l147 859h404l-148 -846q-6 -24 -6 -48q0 -14 2 -30q6 -40 20.5 -73.5t50.5 -55t87 -21.5q69 0 122 43.5t70 143.5l150 887h406l-175 -1000q-35 -205 -189 -332t-402 -127q-128 0 -237 44t-184 121q-75 76 -107 190q-19 68 -20 142q0 50 9 103z" />
<glyph unicode="V" horiz-adv-x="1366" d="M188 1434h443l10 -928h2l461 928h448l-749 -1434h-541z" />
<glyph unicode="W" horiz-adv-x="1957" d="M172 0l35 1434h414l-31 -768h4l373 768h383l39 -768h4l307 768h414l-607 -1434h-450l-35 834l-375 -834h-475z" />
<glyph unicode="X" horiz-adv-x="1329" d="M-92 0l551 729l-293 705h459l131 -385l252 385h493l-549 -721l303 -713h-444l-143 399l-265 -399h-495z" />
<glyph unicode="Y" horiz-adv-x="1368" d="M141 1434h457l158 -422h6l299 422h487l-651 -879l-98 -555h-402l97 549z" />
<glyph unicode="Z" horiz-adv-x="1368" d="M-10 0l61 342l813 717h-678l62 375h1208l-63 -357l-787 -700h668l-66 -377h-1218z" />
<glyph unicode="[" horiz-adv-x="835" d="M-14 -313l301 1747h649l-64 -349h-251l-181 -1048h252l-59 -350h-647z" />
<glyph unicode="\" horiz-adv-x="913" d="M209 1434h348l229 -1434h-346z" />
<glyph unicode="]" horiz-adv-x="839" d="M-70 -313l64 348h252l180 1050h-252l59 349h650l-303 -1747h-650z" />
<glyph unicode="^" horiz-adv-x="1187" d="M90 461l457 973h444l107 -973h-369l-27 530l-219 -530h-393z" />
<glyph unicode="_" horiz-adv-x="1024" d="M-63 -362l53 325h860l-55 -325h-858z" />
<glyph unicode="`" horiz-adv-x="569" d="M86 1434h459l104 -363h-346z" />
<glyph unicode="a" d="M41 424q0 126 40.5 234t107.5 179.5t153 111.5t178 40q59 0 110 -16.5t84 -42.5t53 -48.5t32 -43.5q-2 12 -2 29q0 36 8 89l2 9h371l-166 -965h-371l23 119q-3 -7 -10 -19t-27.5 -35.5t-46 -42t-69 -33t-93.5 -14.5q-161 0 -269 126.5t-108 322.5zM414 457 q0 -59 37 -104.5t98 -45.5q66 0 116 54t50 147q0 59 -37 104t-98 45q-66 0 -116 -53.5t-50 -146.5z" />
<glyph unicode="b" d="M10 0l246 1434h369l-76 -445q-4 -26 -12.5 -58t-14.5 -51l-6 -18q12 17 29 34.5t48 40.5t77.5 37.5t99.5 14.5q161 0 269 -126t108 -322q0 -126 -40 -234.5t-107 -180t-152.5 -111.5t-177.5 -40q-111 0 -180 45.5t-95 98.5l-24 -119h-361zM473 457q0 -59 37 -104.5 t98 -45.5q66 0 116 54t50 147q0 59 -37 104t-98 45q-66 0 -116 -53.5t-50 -146.5z" />
<glyph unicode="c" horiz-adv-x="1085" d="M41 455q0 119 45.5 220.5t120.5 169.5t172 106t201 38q187 0 326 -117t159 -309l-363 -55q-2 59 -38 104t-95 45q-66 0 -116 -53.5t-50 -146.5q0 -59 37.5 -104.5t98.5 -45.5q55 0 99.5 37t57.5 107l353 -78q-42 -186 -185.5 -292t-335.5 -106q-130 0 -240.5 58 t-178.5 169t-68 253z" />
<glyph unicode="d" d="M41 424q0 126 40.5 234t107.5 179.5t153 111.5t178 40q59 0 109.5 -16.5t83 -43t51.5 -48.5t31 -43q-1 14 5.5 71.5t12.5 89.5l76 435h371l-248 -1434h-371l23 119q-3 -7 -10 -19t-27.5 -35.5t-46 -42t-69 -33t-93.5 -14.5q-161 0 -269 126.5t-108 322.5zM414 457 q0 -59 37 -104.5t98 -45.5q66 0 116 54t50 147q0 59 -37 104t-98 45q-66 0 -116 -53.5t-50 -146.5z" />
<glyph unicode="e" horiz-adv-x="1101" d="M41 459q0 154 74.5 277t194.5 188t259 65q228 0 364 -149t136 -383q0 -22 -4 -76h-659q10 -38 49.5 -63t81.5 -25q96 0 137 69l362 -79q-31 -95 -107 -166t-174.5 -106.5t-205.5 -35.5q-98 0 -188.5 32.5t-162 92t-114.5 153t-43 206.5zM410 594h280q-3 46 -40 77t-89 31 q-48 0 -90.5 -28.5t-60.5 -79.5z" />
<glyph unicode="f" horiz-adv-x="749" d="M68 639l53 326h141l41 223q26 144 111 209t243 65q103 0 244 -16l-59 -350q-74 10 -121 10q-67 0 -74 -51l-14 -90h170l-53 -326h-175l-110 -639h-369l109 639h-137z" />
<glyph unicode="g" horiz-adv-x="1200" d="M47 453q0 119 40.5 221t107.5 169t153 104.5t178 37.5q59 0 109.5 -15.5t83 -40.5t51.5 -46t31 -41l20 123h369l-174 -1028q-53 -299 -348 -299h-443l54 321h303q32 0 52 11.5t25 45.5l29 162q-3 -6 -9.5 -16t-30 -36t-51 -45.5t-74.5 -35.5t-99 -16q-161 0 -269 119 t-108 305zM420 483q0 -56 37 -98.5t98 -42.5q67 0 116.5 50.5t49.5 139.5q0 56 -37 98t-98 42q-67 0 -116.5 -50.5t-49.5 -138.5z" />
<glyph unicode="h" horiz-adv-x="1134" d="M10 0l248 1434h369l-84 -488q-8 -49 -27 -86q56 62 131 95.5t146 33.5q152 0 233 -98q59 -72 59 -185q0 -42 -8 -90l-110 -616h-369l86 504q4 22 4 41q0 43 -19 65q-27 34 -67 33q-25 0 -54 -16t-44.5 -30t-26.5 -26l-98 -571h-369z" />
<glyph unicode="i" horiz-adv-x="618" d="M70 639l55 326h485l-166 -965h-368l108 639h-114zM221 1264q0 91 63 154t154 63t154 -63t63 -154t-63 -154t-154 -63t-154 63t-63 154z" />
<glyph unicode="j" horiz-adv-x="618" d="M-139 -362l55 321h88q39 0 53 10.5t19 34.5l108 635h-114l55 326h485l-184 -1069q-9 -53 -27 -94.5t-38 -68t-50 -45.5t-54 -28.5t-61 -14.5t-60 -6t-60 -1h-215zM221 1264q0 91 63 154t154 63t154 -63t63 -154t-63 -154t-154 -63t-154 63t-63 154z" />
<glyph unicode="k" horiz-adv-x="1103" d="M10 0l246 1434h371l-146 -820h6l261 351h423l-370 -469l235 -496h-405l-176 397h-11l-67 -397h-367z" />
<glyph unicode="l" horiz-adv-x="555" d="M12 0l244 1434h373l-248 -1434h-369z" />
<glyph unicode="m" horiz-adv-x="1722" d="M10 0l166 965h369q-14 -71 -31 -105q56 62 131 95.5t146 33.5q100 0 169 -46.5t84 -127.5q76 91 162.5 132.5t163.5 41.5q153 -1 239 -99q64 -73 64 -188q0 -40 -8 -86l-109 -616h-370l86 504q4 23 4 42q0 42 -18 64q-26 34 -66 33q-37 0 -76.5 -26.5t-54.5 -45.5 q-5 -57 -19 -135l-75 -436h-369l86 504q4 23 4 42q0 42 -18 64q-26 34 -66 33q-37 0 -74.5 -26t-52.5 -46l-98 -571h-369z" />
<glyph unicode="n" horiz-adv-x="1132" d="M10 0l166 965h369q-14 -71 -31 -105q56 62 131 95.5t146 33.5q152 0 233 -98q59 -72 59 -185q0 -42 -8 -90l-108 -616h-369l86 504q4 22 4 41q0 43 -19 65q-27 34 -67 33q-25 0 -54 -16t-44.5 -30t-26.5 -26l-98 -571h-369z" />
<glyph unicode="o" horiz-adv-x="1105" d="M41 455q0 119 45.5 220.5t121.5 169.5t173 106t201 38q97 0 185 -34t154.5 -95t106 -152t39.5 -198q0 -119 -45.5 -220.5t-121.5 -169.5t-173 -106.5t-201 -38.5q-130 0 -240 58t-177.5 169t-67.5 253zM403 457q0 -59 37.5 -104.5t98.5 -45.5q67 0 116.5 53.5t49.5 147.5 q0 59 -37.5 104t-98.5 45q-66 0 -116 -53.5t-50 -146.5z" />
<glyph unicode="p" d="M-51 -362l227 1327h367q-4 -28 -11 -54t-12 -37l-4 -12q12 17 29 34.5t48 40.5t77.5 37.5t99.5 14.5q161 0 269 -126t108 -322q0 -126 -40.5 -234.5t-107.5 -180t-153 -111.5t-178 -40q-100 0 -167.5 42t-101.5 92l-82 -471h-368zM473 457q0 -59 37 -104.5t98 -45.5 q66 0 116 54t50 147q0 59 -37 104t-98 45q-66 0 -116 -53.5t-50 -146.5z" />
<glyph unicode="q" d="M41 424q0 126 40.5 234t107.5 179.5t153 111.5t178 40q59 0 110 -16.5t84 -42.5t53 -48.5t32 -43.5q-2 13 -2 29q0 39 10 98h371l-228 -1327h-372l86 481q-3 -7 -10 -19t-27.5 -35.5t-46 -42t-69 -33t-93.5 -14.5q-161 0 -269 126.5t-108 322.5zM414 457q0 -59 37 -104.5 t98 -45.5q66 0 116 54t50 147q0 59 -37 104t-98 45q-66 0 -116 -53.5t-50 -146.5z" />
<glyph unicode="r" horiz-adv-x="757" d="M10 0l166 965h359l-31 -154q43 76 96.5 118t130.5 42q22 0 72 -13l-68 -399h-92q-54 0 -91.5 -15.5t-58.5 -46.5t-31 -62t-18 -77l-63 -358h-371z" />
<glyph unicode="s" horiz-adv-x="964" d="M-25 168l215 219q69 -79 191 -121q39 -14 77 -14h16q46 4 46 31q0 12 -11 21.5t-50 23.5l-156 55q-111 40 -163 119t-52 166q0 40 14 82t46.5 85.5t80 77t121.5 55t164 21.5q117 0 240 -47.5t207 -130.5l-222 -215q-50 56 -122 82.5t-119 26.5q-19 0 -31 -7t-12 -18 q0 -22 26 -33q33 -14 117.5 -43.5t112.5 -44.5q186 -91 186 -262q0 -79 -34.5 -141.5t-93.5 -101.5t-134.5 -59t-161.5 -20q-102 0 -194.5 23t-153 56.5t-98 62.5t-52.5 51z" />
<glyph unicode="t" horiz-adv-x="778" d="M47 639l57 326h136l57 325h371l-60 -325h178l-57 -326h-176l-45 -256q-5 -24 6.5 -38.5t26 -17.5t34.5 -3l119 6l-59 -330q-172 -12 -252 -12q-64 0 -116 17t-91 51q-38 32 -53 90q-8 31 -8 67q0 31 6 66l61 360h-135z" />
<glyph unicode="u" horiz-adv-x="1091" d="M70 481l84 484h372l-88 -498q-4 -24 -4 -44q0 -35 12 -61q20 -40 76 -40q89 0 109 120l92 523h375l-109 -611q-14 -79 -49 -145.5t-93 -120t-147 -83.5t-200 -30q-105 0 -193 35.5t-149 99.5q-60 64 -85 160q-13 51 -13 107q0 50 10 104z" />
<glyph unicode="v" horiz-adv-x="1060" d="M98 965h385l9 -539l233 539h436l-528 -965h-477z" />
<glyph unicode="w" horiz-adv-x="1554" d="M104 0l11 965h381l-50 -551l226 551h305l37 -568l186 568h428l-407 -965h-443l-41 455l-162 -455h-471z" />
<glyph unicode="x" horiz-adv-x="1040" d="M-74 0l334 481l-174 484h406l55 -207l133 207h430l-330 -480l181 -485h-408l-66 215l-122 -215h-439z" />
<glyph unicode="y" horiz-adv-x="1130" d="M72 408l94 557h371l-84 -506q-3 -17 -3 -32q0 -34 12 -57q18 -34 68 -34q35 0 70 21t55 55l99 553h370l-180 -1026q-53 -301 -344 -301h-360l55 321h215q66 0 80 59l16 107q-38 -38 -106 -66t-133 -28q-158 0 -239 109q-62 84 -62 198q0 33 6 70z" />
<glyph unicode="z" horiz-adv-x="1015" d="M-14 0l53 319l469 320h-406l54 326h872l-53 -318l-473 -321h418l-54 -326h-880z" />
<glyph unicode="{" horiz-adv-x="833" d="M43 426l59 340h142l116 668h566l-64 -349h-170l-53 -323q-4 -21 -13.5 -43.5t-28 -50t-52.5 -47.5t-78 -25q41 -13 67.5 -40.5t33.5 -56t10 -57t-3 -43.5l-63 -364h170l-59 -348h-566l129 739h-143z" />
<glyph unicode="|" horiz-adv-x="507" d="M10 -190l301 1746h262l-303 -1746h-260z" />
<glyph unicode="}" horiz-adv-x="831" d="M-61 -313l61 348h172l66 393q8 52 49.5 102.5t118.5 65.5q-51 18 -79 52.5t-30 69t2 68.5l53 299h-172l62 349h563l-117 -668h143l-59 -340h-141l-129 -739h-563z" />
<glyph unicode="~" horiz-adv-x="1064" d="M68 479l34 201q7 37 13.5 62t26 65t46.5 64.5t76.5 43.5t114.5 19q50 0 171.5 -38t131.5 -38q26 0 37.5 14t15.5 58h350l-34 -201q-7 -36 -13.5 -61.5t-26.5 -65t-47 -64.5t-76.5 -44t-113.5 -19q-50 0 -171 38t-130 38q-26 0 -37.5 -14t-15.5 -58h-352z" />
<glyph unicode="&#xa1;" horiz-adv-x="612" d="M-76 -469l201 938h369l-134 -938h-436zM115 760q0 95 68 162t165 67q94 0 162 -67t68 -162t-68 -163.5t-162 -68.5q-96 0 -164.5 68t-68.5 164z" />
<glyph unicode="&#xa2;" horiz-adv-x="1159" d="M111 688q0 157 77.5 281.5t199.5 189t261 64.5q24 0 64 -4l80 215h188l-98 -267q105 -54 172 -149.5t80 -220.5l-363 -56q-3 41 -20 76l-99 -270q41 11 72 46t41 91l352 -78q-42 -186 -185 -291.5t-335 -105.5q-47 0 -70 4l-77 -213h-193l100 268q-113 59 -180 168 t-67 252zM473 690q0 -35 16 -72l99 263q-50 -18 -82.5 -68t-32.5 -123z" />
<glyph unicode="&#xa3;" horiz-adv-x="1230" d="M25 0l61 360h147q38 28 61 77.5t23 97.5q0 20 -4 28h-211l50 277h94q-9 21 -20 68.5t-11 80.5q0 203 146 336t397 133q138 0 249 -48.5t176.5 -141.5t65.5 -215q0 -41 -4 -72h-381v8q0 43 -25.5 74t-80.5 31q-18 0 -34.5 -4.5t-38.5 -17.5t-35 -45t-13 -79q0 -22 4 -49 t8 -43l4 -16h441l-50 -277h-342q-11 -78 -50 -130t-83 -73h555l-61 -360h-1038z" />
<glyph unicode="&#xa4;" horiz-adv-x="1615" d="M31 240l223 170q-75 159 -43 362q30 194 168 348l-162 197l227 180l158 -201q168 87 361 72q191 -18 325 -133l221 168l160 -211l-225 -168q75 -162 43 -365q-15 -95 -59.5 -185.5t-108.5 -160.5l162 -198l-228 -181l-159 203q-163 -89 -359 -74q-187 18 -325 136 l-224 -170zM487 748q-19 -105 10.5 -196.5t104 -152t180.5 -69.5q158 -15 278.5 88t147.5 266q19 105 -9.5 197.5t-102 153t-178.5 69.5q-160 15 -282 -89t-149 -267z" />
<glyph unicode="&#xa5;" horiz-adv-x="1523" d="M174 221l39 228h340l18 94h-340l39 227h211l-262 664h479l140 -422h6l297 422h485l-493 -664h229l-39 -227h-350l-19 -94h351l-39 -228h-351l-38 -221h-402l39 221h-340z" />
<glyph unicode="&#xa6;" horiz-adv-x="507" d="M10 -190l129 780h264l-135 -780h-258zM176 778l135 778h260l-133 -778h-262z" />
<glyph unicode="&#xa7;" horiz-adv-x="1271" d="M-23 -47l256 260q38 -54 87 -92t96.5 -56.5t85 -26t69.5 -7.5q86 0 86 59q0 34 -41 47l-219 68q-139 43 -220 125t-81 207q0 122 78 206.5t209 112.5q-54 36 -89.5 105t-35.5 143q0 116 67.5 206.5t181 138.5t251.5 48q171 0 325 -65t244 -172l-260 -263 q-56 81 -144.5 123.5t-154.5 42.5q-102 0 -102 -69q0 -25 28 -44.5t103 -43.5l139 -45q289 -95 289 -314q0 -48 -13.5 -93.5t-41.5 -89.5t-80 -76.5t-121 -45.5q102 -94 102 -225q0 -127 -72 -223t-188.5 -144.5t-257.5 -48.5q-183 0 -342.5 72.5t-233.5 179.5zM481 610 q0 -28 20.5 -52t59.5 -34l139 -37q60 0 95.5 23.5t35.5 62.5q0 42 -47 56l-184 61q-46 0 -82.5 -18t-36.5 -62z" />
<glyph unicode="&#xa8;" horiz-adv-x="899" d="M145 1257q0 76 59 134.5t136 58.5t136 -58.5t59 -134.5t-59 -134t-136 -58t-136 58t-59 134zM571 1257q0 76 59 134.5t136 58.5t136 -58.5t59 -134.5t-59 -134t-136 -58t-136 58t-59 134z" />
<glyph unicode="&#xa9;" horiz-adv-x="1701" d="M125 713q0 218 102 393t277.5 272t388.5 97t388.5 -97t277.5 -272t102 -393q0 -164 -60 -306.5t-162.5 -242t-244 -156.5t-301.5 -57t-301.5 57t-244 156.5t-162.5 242t-60 306.5zM328 713q0 -258 158 -425t407 -167t407 167t158 425q0 256 -158 421.5t-407 165.5 t-407 -165.5t-158 -421.5zM461 717q0 190 127 313t319 123q148 0 265 -95t153 -255l-256 -10q-17 63 -61 100t-101 37q-89 0 -143.5 -60.5t-54.5 -152.5q0 -95 54 -156t144 -61q57 0 101 37t61 100l256 -10q-36 -159 -153.5 -255t-264.5 -96q-187 0 -316.5 125t-129.5 316z " />
<glyph unicode="&#xaa;" horiz-adv-x="1073" d="M154 981q0 107 35 198t93 151t132.5 94t154.5 34q85 0 144 -39t88 -84q0 51 6 103h319l-139 -820h-321l22 103q-15 -43 -72.5 -83t-142.5 -40q-136 0 -227.5 107t-91.5 276zM471 1014q0 -53 34 -90t83 -37q54 0 94.5 42.5t40.5 114.5q0 54 -32 92t-79 38q-55 0 -98 -44 t-43 -116z" />
<glyph unicode="&#xab;" horiz-adv-x="1308" d="M57 483l326 422h410l-322 -418l160 -421h-367zM588 483l325 422h410l-322 -418l160 -421h-366z" />
<glyph unicode="&#xac;" horiz-adv-x="1064" d="M86 768l66 377h938l-150 -852h-379l84 475h-559z" />
<glyph unicode="&#xad;" horiz-adv-x="512" />
<glyph unicode="&#xae;" horiz-adv-x="1701" d="M125 713q0 218 102 393t277.5 272t388.5 97t388.5 -97t277.5 -272t102 -393q0 -164 -60 -306.5t-162.5 -242t-244 -156.5t-301.5 -57t-301.5 57t-244 156.5t-162.5 242t-60 306.5zM328 713q0 -258 158 -425t407 -167t407 167t158 425q0 256 -158 421.5t-407 165.5 t-407 -165.5t-158 -421.5zM563 313v834h359q151 0 238 -72t87 -194q0 -71 -38.5 -138t-123.5 -104l203 -326h-262l-156 269h-67v-269h-240zM803 788h90q46 0 75 21t29 59q0 37 -28.5 55.5t-75.5 18.5h-90v-154z" />
<glyph unicode="&#xaf;" horiz-adv-x="790" d="M143 1075l54 307h698l-53 -307h-699z" />
<glyph unicode="&#xb0;" horiz-adv-x="851" d="M168 1100q0 151 106 254.5t258 103.5t258.5 -103.5t106.5 -254.5t-106.5 -255t-258.5 -104t-258 104t-106 255zM399 1100q0 -59 38 -98t95 -39t95.5 39.5t38.5 97.5t-38.5 97.5t-95.5 39.5t-95 -39t-38 -98z" />
<glyph unicode="&#xb1;" horiz-adv-x="1064" d="M-20 0l65 377h938l-68 -377h-935zM109 737l65 377h281l51 285h379l-51 -285h278l-65 -377h-279l-53 -297h-379l53 297h-280z" />
<glyph unicode="&#xb2;" horiz-adv-x="880" d="M111 516l53 262l319 189q73 44 103 82t30 79q0 29 -21 49.5t-52 20.5q-35 0 -53.5 -22.5t-18.5 -55.5q0 -27 8 -51l-252 -20q-16 66 -16 104q0 55 20.5 106.5t60.5 94.5t107.5 69.5t153.5 26.5q89 0 157.5 -26.5t107 -70.5t57 -93.5t18.5 -102.5q0 -56 -16.5 -105 t-41 -84t-66 -69t-76 -55.5t-87.5 -50.5l-71 -39h303l-43 -238h-684z" />
<glyph unicode="&#xb3;" horiz-adv-x="880" d="M150 766q0 37 8 61h280q-10 -13 -10 -45q0 -20 11 -34.5t32 -14.5q27 0 44 19t17 53q0 45 -31 64.5t-69 19.5q-45 0 -72 -2l50 211l178 102h-344l43 234h631l-48 -275l-202 -112q69 -27 112 -87t43 -149q0 -141 -102 -226t-254 -85q-153 0 -235 75t-82 191z" />
<glyph unicode="&#xb4;" horiz-adv-x="569" d="M125 1071l143 363h461l-258 -363h-346z" />
<glyph unicode="&#xb5;" horiz-adv-x="1118" d="M-31 -360l224 1325h378l-90 -500q-10 -62 10 -99.5t72 -37.5q82 0 103 116l90 521h379l-105 -623q-14 -79 -46 -144t-84 -116t-131 -79t-179 -28q-60 0 -121 21t-92 49l-72 -405h-336z" />
<glyph unicode="&#xb6;" horiz-adv-x="1474" d="M150 934q0 140 71.5 254.5t200.5 180t291 65.5h780l-248 -1434h-405l186 1075h-102l-185 -1075h-407l100 594q-120 6 -201 104.5t-81 235.5z" />
<glyph unicode="&#xb7;" horiz-adv-x="600" d="M111 725q0 96 66.5 163.5t160.5 67.5q97 0 164 -67t67 -164q0 -94 -67.5 -160.5t-163.5 -66.5q-94 0 -160.5 66.5t-66.5 160.5z" />
<glyph unicode="&#xb8;" horiz-adv-x="636" d="M-84 -279l158 318h399l-205 -318h-352z" />
<glyph unicode="&#xb9;" horiz-adv-x="880" d="M160 516l37 234h168l86 450h-150l43 234h426l-125 -684h166l-39 -234h-612z" />
<glyph unicode="&#xba;" horiz-adv-x="980" d="M150 1004q0 101 41 188t107 144t148.5 89.5t165.5 32.5q110 0 203 -48t150 -142t57 -215q0 -98 -40.5 -185t-106 -145t-148 -91.5t-166.5 -33.5q-111 0 -204 49.5t-150 143.5t-57 213zM463 1016q0 -55 31.5 -94t78.5 -39q51 0 92.5 43.5t41.5 115.5q0 55 -31 93.5 t-78 38.5q-51 0 -93 -43.5t-42 -114.5z" />
<glyph unicode="&#xbb;" horiz-adv-x="1325" d="M6 66l320 419l-191 420h367l237 -413l-327 -426h-406zM535 66l323 419l-188 420h362l238 -413l-330 -426h-405z" />
<glyph unicode="&#xbc;" horiz-adv-x="2211" d="M139 516l37 234h168l86 450h-149l43 234h426l-125 -684h166l-39 -234h-613zM297 37l1636 1481l99 -113l-1637 -1481zM1284 172l41 240l426 506h322l-95 -510h90l-45 -236h-88l-32 -172h-271l33 172h-381zM1569 408h139l45 215z" />
<glyph unicode="&#xbd;" horiz-adv-x="2211" d="M139 516l37 234h168l86 450h-149l43 234h426l-125 -684h166l-39 -234h-613zM297 37l1636 1481l99 -113l-1637 -1481zM1368 0l53 262l320 189q73 44 103 82t30 79q0 29 -21.5 49.5t-52.5 20.5q-35 0 -53 -22.5t-18 -55.5q0 -27 8 -51l-252 -21q-17 70 -17 105 q0 55 20.5 106.5t60.5 94.5t107.5 69.5t153.5 26.5q89 0 157.5 -26.5t107 -70.5t57 -93.5t18.5 -102.5q0 -56 -16.5 -105.5t-41 -84t-65.5 -69t-76 -56.5t-87 -50l-72 -38h303l-43 -238h-684z" />
<glyph unicode="&#xbe;" horiz-adv-x="2211" d="M137 766q0 37 8 61h281q-10 -13 -10 -45q0 -20 11 -34.5t32 -14.5q27 0 44 19t17 53q0 45 -31 64.5t-69 19.5q-45 0 -72 -2l49 211l178 102h-344l43 234h631l-47 -275l-203 -112q69 -27 112.5 -87t43.5 -149q0 -141 -102 -226t-254 -85q-153 0 -235.5 75t-82.5 191z M297 37l1636 1481l99 -113l-1637 -1481zM1284 172l41 240l426 506h322l-95 -510h90l-45 -236h-88l-32 -172h-271l33 172h-381zM1569 408h139l45 215z" />
<glyph unicode="&#xbf;" horiz-adv-x="1089" d="M-27 -55q0 41 4.5 79t24 92.5t52 99.5t94 90.5t145.5 74.5l41 88h371l-56 -322l-12 -2q-129 -21 -188.5 -69t-59.5 -101q0 -38 24 -63t60 -25q52 0 74 28.5t22 68.5v12h375q-2 -105 -32.5 -189.5t-79.5 -139.5t-114.5 -92t-134 -53t-141.5 -16q-109 0 -199 35.5 t-148 96.5t-90 140t-32 167zM322 760q0 95 68 162t165 67q94 0 161.5 -67t67.5 -162t-67.5 -163.5t-161.5 -68.5q-97 0 -165 68t-68 164z" />
<glyph unicode="&#xc0;" horiz-adv-x="1351" d="M-76 0l674 1434h489l187 -1434h-414l-29 240h-356l-108 -240h-443zM444 1903h459l105 -363h-346zM612 600h197l-31 356h-8z" />
<glyph unicode="&#xc1;" horiz-adv-x="1351" d="M-76 0l674 1434h489l187 -1434h-414l-29 240h-356l-108 -240h-443zM612 600h197l-31 356h-8zM694 1540l144 363h460l-258 -363h-346z" />
<glyph unicode="&#xc2;" horiz-adv-x="1351" d="M-76 0l674 1434h489l187 -1434h-414l-29 240h-356l-108 -240h-443zM426 1540l287 363h360l160 -363h-320l-47 119l-75 -119h-365zM612 600h197l-31 356h-8z" />
<glyph unicode="&#xc3;" horiz-adv-x="1351" d="M-76 0l674 1434h489l187 -1434h-414l-29 240h-356l-108 -240h-443zM528 1565q0 26 4 58t19 81t39.5 86.5t72 65.5t109.5 28q50 0 135 -37t107 -37q34 0 41 31l4 21l256 -25q0 -27 -4 -59t-19 -79.5t-39.5 -84.5t-71.5 -63.5t-110 -26.5q-50 0 -135 33.5t-107 33.5 q-34 0 -41 -30l-4 -21zM612 600h197l-31 356h-8z" />
<glyph unicode="&#xc4;" horiz-adv-x="1351" d="M-76 0l674 1434h489l187 -1434h-414l-29 240h-356l-108 -240h-443zM444 1726q0 76 59 134.5t136 58.5t136 -58.5t59 -134.5t-59 -134t-136 -58t-136 58t-59 134zM612 600h197l-31 356h-8zM870 1726q0 76 59 134.5t136 58.5t136 -58.5t59 -134.5t-59 -134t-136 -58 t-136 58t-59 134z" />
<glyph unicode="&#xc5;" horiz-adv-x="1351" d="M-76 0l674 1434h489l187 -1434h-414l-29 240h-356l-108 -240h-443zM588 1767q0 118 80.5 193.5t201.5 75.5t203 -76t82 -193q0 -114 -82.5 -190t-202.5 -76t-201 76t-81 190zM612 600h197l-31 356h-8zM778 1767q0 -41 27 -69.5t65 -28.5q40 0 66.5 28.5t26.5 69.5 q0 43 -26.5 72t-66.5 29q-38 0 -65 -29t-27 -72z" />
<glyph unicode="&#xc6;" horiz-adv-x="2043" d="M-102 0l843 1434h1387l-62 -361h-723l-30 -164h479l-63 -356h-476l-34 -193h745l-63 -360h-1149l47 262h-291l-146 -262h-464zM707 618h151l78 406h-16z" />
<glyph unicode="&#xc7;" horiz-adv-x="1585" d="M92 690q0 162 64 306t170.5 244.5t248 159t293.5 58.5q186 0 343 -76.5t257 -212.5t125 -307h-465q-22 87 -91 143t-179 56q-139 0 -235.5 -109.5t-96.5 -273.5q0 -77 30.5 -144.5t98 -114t160.5 -46.5q103 0 183 52t110 150h477q-43 -230 -207.5 -383.5t-390.5 -197.5 l-174 -273h-352l139 283q-229 63 -368.5 250t-139.5 436z" />
<glyph unicode="&#xc8;" horiz-adv-x="1329" d="M43 0l244 1434h1124l-59 -359h-721l-27 -166h365l-64 -356h-362l-33 -193h737l-61 -360h-1143zM481 1903h459l104 -363h-346z" />
<glyph unicode="&#xc9;" horiz-adv-x="1329" d="M43 0l244 1434h1124l-59 -359h-721l-27 -166h365l-64 -356h-362l-33 -193h737l-61 -360h-1143zM655 1540l144 363h461l-259 -363h-346z" />
<glyph unicode="&#xca;" horiz-adv-x="1329" d="M43 0l244 1434h1124l-59 -359h-721l-27 -166h365l-64 -356h-362l-33 -193h737l-61 -360h-1143zM469 1540l287 363h360l160 -363h-320l-47 119l-75 -119h-365z" />
<glyph unicode="&#xcb;" horiz-adv-x="1329" d="M43 0l244 1434h1124l-59 -359h-721l-27 -166h365l-64 -356h-362l-33 -193h737l-61 -360h-1143zM449 1726q0 76 58.5 134.5t135.5 58.5t136 -58.5t59 -134.5t-59 -134t-136 -58t-135.5 58t-58.5 134zM874 1726q0 76 59 134.5t136 58.5t136 -58.5t59 -134.5t-59 -134 t-136 -58t-136 58t-59 134z" />
<glyph unicode="&#xcc;" horiz-adv-x="653" d="M43 0l246 1434h405l-243 -1434h-408zM100 1903h459l105 -363h-347z" />
<glyph unicode="&#xcd;" horiz-adv-x="653" d="M43 0l246 1434h405l-243 -1434h-408zM332 1540l143 363h461l-258 -363h-346z" />
<glyph unicode="&#xce;" horiz-adv-x="653" d="M43 0l246 1434h405l-243 -1434h-408zM129 1540l287 363h360l160 -363h-320l-47 119l-75 -119h-365z" />
<glyph unicode="&#xcf;" horiz-adv-x="653" d="M43 0l246 1434h405l-243 -1434h-408zM125 1726q0 76 58.5 134.5t135.5 58.5t136 -58.5t59 -134.5t-59 -134t-136 -58t-135.5 58t-58.5 134zM551 1726q0 76 58.5 134.5t135.5 58.5t136 -58.5t59 -134.5t-59 -134t-136 -58t-135.5 58t-58.5 134z" />
<glyph unicode="&#xd0;" horiz-adv-x="1542" d="M-4 532l65 377h179l92 525h512q156 0 286.5 -49t219 -135.5t137.5 -206.5t49 -261q0 -163 -59.5 -307.5t-164.5 -249t-256 -165t-327 -60.5h-647l92 532h-178zM549 362h151q188 0 301 110.5t113 287.5q0 84 -30.5 147.5t-80.5 98t-103.5 51t-108.5 16.5h-117l-29 -164 h279l-68 -377h-278z" />
<glyph unicode="&#xd1;" horiz-adv-x="1488" d="M41 0l250 1434h563l145 -738l136 738h397l-248 -1434h-487l-193 918l-166 -918h-397zM537 1565q0 26 3.5 58t18.5 81t39.5 86.5t72 65.5t109.5 28q50 0 135 -37t107 -37q34 0 41 31l4 21l256 -25q0 -27 -4 -59t-19 -79.5t-39.5 -84.5t-71.5 -63.5t-110 -26.5 q-50 0 -134.5 33.5t-106.5 33.5q-34 0 -41 -30l-4 -21z" />
<glyph unicode="&#xd2;" horiz-adv-x="1595" d="M92 690q0 162 64 306t170 244.5t247 159t293 58.5q207 0 373 -94.5t258 -257t92 -361.5q0 -162 -63.5 -306t-169.5 -245t-247.5 -160t-293.5 -59q-206 0 -371.5 93.5t-258.5 257t-93 364.5zM426 1903h459l104 -363h-346zM526 678q0 -130 78 -217.5t219 -87.5 q139 0 234.5 111t95.5 276q0 129 -77 215t-218 86q-139 0 -235.5 -109.5t-96.5 -273.5z" />
<glyph unicode="&#xd3;" horiz-adv-x="1595" d="M92 690q0 162 64 306t170 244.5t247 159t293 58.5q207 0 373 -94.5t258 -257t92 -361.5q0 -162 -63.5 -306t-169.5 -245t-247.5 -160t-293.5 -59q-206 0 -371.5 93.5t-258.5 257t-93 364.5zM526 678q0 -130 78 -217.5t219 -87.5q139 0 234.5 111t95.5 276q0 129 -77 215 t-218 86q-139 0 -235.5 -109.5t-96.5 -273.5zM797 1540l143 363h461l-258 -363h-346z" />
<glyph unicode="&#xd4;" horiz-adv-x="1595" d="M92 690q0 162 64 306t170 244.5t247 159t293 58.5q207 0 373 -94.5t258 -257t92 -361.5q0 -162 -63.5 -306t-169.5 -245t-247.5 -160t-293.5 -59q-206 0 -371.5 93.5t-258.5 257t-93 364.5zM504 1540l287 363h360l160 -363h-320l-47 119l-76 -119h-364zM526 678 q0 -130 78 -217.5t219 -87.5q139 0 234.5 111t95.5 276q0 129 -77 215t-218 86q-139 0 -235.5 -109.5t-96.5 -273.5z" />
<glyph unicode="&#xd5;" horiz-adv-x="1595" d="M92 690q0 162 64 306t170 244.5t247 159t293 58.5q207 0 373 -94.5t258 -257t92 -361.5q0 -162 -63.5 -306t-169.5 -245t-247.5 -160t-293.5 -59q-206 0 -371.5 93.5t-258.5 257t-93 364.5zM520 1565q0 26 4 58t19 81t39.5 86.5t72 65.5t109.5 28q50 0 135 -37t107 -37 q34 0 41 31l4 21l256 -25q0 -27 -4 -59t-19 -79.5t-39.5 -84.5t-71.5 -63.5t-110 -26.5q-50 0 -135 33.5t-107 33.5q-34 0 -41 -30l-4 -21zM526 678q0 -130 78 -217.5t219 -87.5q139 0 234.5 111t95.5 276q0 129 -77 215t-218 86q-139 0 -235.5 -109.5t-96.5 -273.5z" />
<glyph unicode="&#xd6;" horiz-adv-x="1595" d="M92 690q0 162 64 306t170 244.5t247 159t293 58.5q207 0 373 -94.5t258 -257t92 -361.5q0 -162 -63.5 -306t-169.5 -245t-247.5 -160t-293.5 -59q-206 0 -371.5 93.5t-258.5 257t-93 364.5zM516 1726q0 76 59 134.5t136 58.5t135.5 -58.5t58.5 -134.5t-58.5 -134 t-135.5 -58t-136 58t-59 134zM526 678q0 -130 78 -217.5t219 -87.5q139 0 234.5 111t95.5 276q0 129 -77 215t-218 86q-139 0 -235.5 -109.5t-96.5 -273.5zM942 1726q0 76 59 134.5t136 58.5t135.5 -58.5t58.5 -134.5t-58.5 -134t-135.5 -58t-136 58t-59 134z" />
<glyph unicode="&#xd7;" horiz-adv-x="1187" d="M102 502l299 229l-196 262l278 226l191 -258l274 215l209 -273l-278 -221l196 -268l-282 -219l-187 258l-289 -228z" />
<glyph unicode="&#xd8;" horiz-adv-x="1597" d="M-57 -27l284 289q-135 184 -135 428q0 162 64 306t170 244.5t247 159t293 58.5q237 0 420 -125l123 125h356l-301 -303q125 -180 125 -410q0 -162 -63.5 -306t-169.5 -245t-247.5 -160t-293.5 -59q-231 0 -407 115l-117 -117h-348zM526 678q0 -46 13 -100l452 456 q-66 27 -133 27q-139 0 -235.5 -109.5t-96.5 -273.5zM707 391q50 -18 116 -18q139 0 234.5 111t95.5 276q0 41 -8 74z" />
<glyph unicode="&#xd9;" horiz-adv-x="1374" d="M125 575l147 859h404l-148 -846q-9 -38 -3.5 -78.5t20 -73.5t50.5 -54.5t87 -21.5q69 0 122 43.5t70 143.5l150 887h406l-175 -1000q-35 -205 -189 -332t-402 -127q-128 0 -237 44t-184 121t-107.5 190.5t-10.5 244.5zM465 1903h459l104 -363h-346z" />
<glyph unicode="&#xda;" horiz-adv-x="1374" d="M125 575l147 859h404l-148 -846q-9 -38 -3.5 -78.5t20 -73.5t50.5 -54.5t87 -21.5q69 0 122 43.5t70 143.5l150 887h406l-175 -1000q-35 -205 -189 -332t-402 -127q-128 0 -237 44t-184 121t-107.5 190.5t-10.5 244.5zM690 1540l144 363h460l-258 -363h-346z" />
<glyph unicode="&#xdb;" horiz-adv-x="1374" d="M125 575l147 859h404l-148 -846q-9 -38 -3.5 -78.5t20 -73.5t50.5 -54.5t87 -21.5q69 0 122 43.5t70 143.5l150 887h406l-175 -1000q-35 -205 -189 -332t-402 -127q-128 0 -237 44t-184 121t-107.5 190.5t-10.5 244.5zM440 1540l287 363h360l160 -363h-319l-47 119 l-76 -119h-365z" />
<glyph unicode="&#xdc;" horiz-adv-x="1374" d="M125 575l147 859h404l-148 -846q-9 -38 -3.5 -78.5t20 -73.5t50.5 -54.5t87 -21.5q69 0 122 43.5t70 143.5l150 887h406l-175 -1000q-35 -205 -189 -332t-402 -127q-128 0 -237 44t-184 121t-107.5 190.5t-10.5 244.5zM467 1726q0 76 59 134.5t136 58.5t135.5 -58.5 t58.5 -134.5t-58.5 -134t-135.5 -58t-136 58t-59 134zM893 1726q0 76 58.5 134.5t135.5 58.5t136 -58.5t59 -134.5t-59 -134t-136 -58t-135.5 58t-58.5 134z" />
<glyph unicode="&#xdd;" horiz-adv-x="1368" d="M141 1434h457l158 -422h6l299 422h487l-651 -879l-98 -555h-402l97 549zM657 1540l144 363h461l-258 -363h-347z" />
<glyph unicode="&#xde;" horiz-adv-x="1257" d="M41 0l248 1434h405l-32 -179h43q253 0 406 -133.5t153 -359.5q0 -246 -171 -394.5t-456 -148.5h-154l-37 -219h-405zM543 582h67q52 0 92 7.5t74 26t52 54t18 86.5q0 68 -55 103.5t-142 35.5h-49z" />
<glyph unicode="&#xdf;" horiz-adv-x="1146" d="M10 0l172 1006q17 100 54 180t98 142t153.5 96t210.5 34q111 0 198 -36.5t138 -96.5t77 -129t26 -141q0 -63 -19 -121.5t-45.5 -99.5t-53.5 -74.5t-46 -60.5t-19 -44q0 -21 19 -60.5t42.5 -79.5t42.5 -101t19 -119q0 -139 -102 -229.5t-262 -90.5q-44 0 -125 13.5 t-127 34.5l65 305q46 -19 90 -19q38 0 56 20.5t18 51.5t-28 74t-56 93t-28 97t29.5 104t65.5 100t65.5 91.5t29.5 81.5q0 35 -24.5 60.5t-59.5 25.5q-40 0 -73.5 -29.5t-43.5 -89.5l-172 -989h-385z" />
<glyph unicode="&#xe0;" d="M41 424q0 126 40.5 234t107.5 179.5t153 111.5t178 40q59 0 110 -16.5t84 -42.5t53 -48.5t32 -43.5q-5 40 6 118l2 9h371l-166 -965h-371l23 119q-3 -7 -10 -19t-27.5 -35.5t-46 -42t-69 -33t-93.5 -14.5q-161 0 -269 126.5t-108 322.5zM268 1434h459l104 -363h-346z M414 457q0 -59 37 -104.5t98 -45.5q66 0 116 54t50 147q0 59 -37 104t-98 45q-66 0 -116 -53.5t-50 -146.5z" />
<glyph unicode="&#xe1;" d="M41 424q0 126 40.5 234t107.5 179.5t153 111.5t178 40q59 0 110 -16.5t84 -42.5t53 -48.5t32 -43.5q-5 40 6 118l2 9h371l-166 -965h-371l23 119q-3 -7 -10 -19t-27.5 -35.5t-46 -42t-69 -33t-93.5 -14.5q-161 0 -269 126.5t-108 322.5zM414 457q0 -59 37 -104.5 t98 -45.5q66 0 116 54t50 147q0 59 -37 104t-98 45q-66 0 -116 -53.5t-50 -146.5zM545 1071l143 363h461l-258 -363h-346z" />
<glyph unicode="&#xe2;" d="M41 424q0 126 40.5 234t107.5 179.5t153 111.5t178 40q59 0 110 -16.5t84 -42.5t53 -48.5t32 -43.5q-5 40 6 118l2 9h371l-166 -965h-371l23 119q-3 -7 -10 -19t-27.5 -35.5t-46 -42t-69 -33t-93.5 -14.5q-161 0 -269 126.5t-108 322.5zM295 1071l287 363h360l160 -363 h-320l-47 119l-76 -119h-364zM414 457q0 -59 37 -104.5t98 -45.5q66 0 116 54t50 147q0 59 -37 104t-98 45q-66 0 -116 -53.5t-50 -146.5z" />
<glyph unicode="&#xe3;" d="M41 424q0 126 40.5 234t107.5 179.5t153 111.5t178 40q59 0 110 -16.5t84 -42.5t53 -48.5t32 -43.5q-5 40 6 118l2 9h371l-166 -965h-371l23 119q-3 -7 -10 -19t-27.5 -35.5t-46 -42t-69 -33t-93.5 -14.5q-161 0 -269 126.5t-108 322.5zM303 1096q0 26 4 58t19 81 t39.5 86.5t72 65.5t109.5 28q50 0 134.5 -37t106.5 -37q34 0 41 31l5 21l256 -25q0 -27 -4 -59t-19 -79.5t-39.5 -84.5t-71.5 -63.5t-110 -26.5q-50 0 -135 33.5t-107 33.5q-34 0 -41 -30l-4 -21zM414 457q0 -59 37 -104.5t98 -45.5q66 0 116 54t50 147q0 59 -37 104t-98 45 q-66 0 -116 -53.5t-50 -146.5z" />
<glyph unicode="&#xe4;" d="M41 424q0 126 40.5 234t107.5 179.5t153 111.5t178 40q59 0 110 -16.5t84 -42.5t53 -48.5t32 -43.5q-5 40 6 118l2 9h371l-166 -965h-371l23 119q-3 -7 -10 -19t-27.5 -35.5t-46 -42t-69 -33t-93.5 -14.5q-161 0 -269 126.5t-108 322.5zM295 1257q0 76 58.5 134.5 t135.5 58.5t136 -58.5t59 -134.5t-59 -134t-136 -58t-135.5 58t-58.5 134zM414 457q0 -59 37 -104.5t98 -45.5q66 0 116 54t50 147q0 59 -37 104t-98 45q-66 0 -116 -53.5t-50 -146.5zM721 1257q0 76 58.5 134.5t135.5 58.5t136 -58.5t59 -134.5t-59 -134t-136 -58 t-135.5 58t-58.5 134z" />
<glyph unicode="&#xe5;" d="M41 424q0 126 40.5 234t107.5 179.5t153 111.5t178 40q59 0 110 -16.5t84 -42.5t53 -48.5t32 -43.5q-5 40 6 118l2 9h371l-166 -965h-371l23 119q-3 -7 -10 -19t-27.5 -35.5t-46 -42t-69 -33t-93.5 -14.5q-161 0 -269 126.5t-108 322.5zM414 457q0 -59 37 -104.5 t98 -45.5q66 0 116 54t50 147q0 59 -37 104t-98 45q-66 0 -116 -53.5t-50 -146.5zM440 1298q0 117 81 193t202 76t203 -76t82 -193q0 -114 -82 -190t-203 -76q-120 0 -201.5 76t-81.5 190zM631 1298q0 -41 27 -69.5t65 -28.5q40 0 66 28t26 70q0 43 -26 72t-66 29 q-38 0 -65 -29t-27 -72z" />
<glyph unicode="&#xe6;" horiz-adv-x="1634" d="M-4 276q0 82 35.5 144.5t93.5 97t123.5 51.5t134.5 17h158q63 0 63 49q0 23 -21.5 38t-64.5 15q-59 0 -145 -16t-156 -41l-72 291q195 67 414 67q185 0 289 -71q42 32 106 51.5t133 19.5q238 0 378.5 -149t140.5 -383q0 -22 -4 -76h-656q10 -39 44 -63.5t75 -24.5 q86 0 127 69l371 -79q-30 -94 -110.5 -165.5t-182.5 -107t-209 -35.5q-118 0 -213 42t-158 118q-17 -24 -40.5 -46.5t-65 -51t-105.5 -45.5t-141 -17q-148 0 -245 85.5t-97 215.5zM369 309q0 -31 25.5 -52t58.5 -21q125 0 135 170q-20 -17 -45 -17h-78q-42 0 -69 -20 t-27 -60zM946 594h277q-3 45 -42 76.5t-87 31.5q-43 0 -87.5 -28.5t-60.5 -79.5z" />
<glyph unicode="&#xe7;" horiz-adv-x="1089" d="M43 455q0 119 45.5 220.5t120.5 169.5t172 106t201 38q187 0 326 -117t159 -309l-362 -55q-2 59 -38.5 104t-95.5 45q-66 0 -115.5 -53.5t-49.5 -146.5q0 -59 37 -104.5t98 -45.5q55 0 99.5 37t57.5 107l353 -78q-32 -140 -122.5 -236t-219.5 -135l-181 -281h-352 l148 297q-126 55 -203.5 169.5t-77.5 267.5z" />
<glyph unicode="&#xe8;" horiz-adv-x="1101" d="M41 459q0 154 74.5 277t194.5 188t259 65q228 0 364 -149t136 -383q0 -22 -4 -76h-659q10 -38 49.5 -63t81.5 -25q96 0 137 69l362 -79q-31 -95 -107 -166t-174.5 -106.5t-205.5 -35.5q-98 0 -188.5 32.5t-162 92t-114.5 153t-43 206.5zM180 1434h459l104 -363h-346z M410 594h280q-3 46 -40 77t-89 31q-48 0 -90.5 -28.5t-60.5 -79.5z" />
<glyph unicode="&#xe9;" horiz-adv-x="1101" d="M41 459q0 154 74.5 277t194.5 188t259 65q228 0 364 -149t136 -383q0 -22 -4 -76h-659q10 -38 49.5 -63t81.5 -25q96 0 137 69l362 -79q-31 -95 -107 -166t-174.5 -106.5t-205.5 -35.5q-98 0 -188.5 32.5t-162 92t-114.5 153t-43 206.5zM410 594h280q-3 46 -40 77t-89 31 q-48 0 -90.5 -28.5t-60.5 -79.5zM434 1071l144 363h460l-258 -363h-346z" />
<glyph unicode="&#xea;" horiz-adv-x="1101" d="M41 459q0 154 74.5 277t194.5 188t259 65q228 0 364 -149t136 -383q0 -22 -4 -76h-659q10 -38 49.5 -63t81.5 -25q96 0 137 69l362 -79q-31 -95 -107 -166t-174.5 -106.5t-205.5 -35.5q-98 0 -188.5 32.5t-162 92t-114.5 153t-43 206.5zM221 1071l287 363h360l160 -363 h-319l-47 119l-76 -119h-365zM410 594h280q-3 46 -40 77t-89 31q-48 0 -90.5 -28.5t-60.5 -79.5z" />
<glyph unicode="&#xeb;" horiz-adv-x="1101" d="M41 459q0 154 74.5 277t194.5 188t259 65q228 0 364 -149t136 -383q0 -22 -4 -76h-659q10 -38 49.5 -63t81.5 -25q96 0 137 69l362 -79q-31 -95 -107 -166t-174.5 -106.5t-205.5 -35.5q-98 0 -188.5 32.5t-162 92t-114.5 153t-43 206.5zM238 1257q0 76 58.5 134.5 t135.5 58.5t136 -58.5t59 -134.5t-59 -134t-136 -58t-135.5 58t-58.5 134zM410 594h280q-3 46 -40 77t-89 31q-48 0 -90.5 -28.5t-60.5 -79.5zM664 1257q0 76 58.5 134.5t135.5 58.5t136 -58.5t59 -134.5t-59 -134t-136 -58t-135.5 58t-58.5 134z" />
<glyph unicode="&#xec;" horiz-adv-x="618" d="M25 1434h458l105 -363h-346zM70 639l55 326h485l-166 -965h-368l108 639h-114z" />
<glyph unicode="&#xed;" horiz-adv-x="618" d="M70 639l55 326h485l-166 -965h-368l108 639h-114zM233 1071l144 363h461l-258 -363h-347z" />
<glyph unicode="&#xee;" horiz-adv-x="618" d="M2 1071l287 363h360l160 -363h-320l-47 119l-75 -119h-365zM70 639l55 326h485l-166 -965h-368l108 639h-114z" />
<glyph unicode="&#xef;" horiz-adv-x="618" d="M37 1257q0 76 58.5 134.5t135.5 58.5t136 -58.5t59 -134.5t-59 -134t-136 -58t-135.5 58t-58.5 134zM70 639l55 326h485l-166 -965h-368l108 639h-114zM463 1257q0 76 58.5 134.5t135.5 58.5t136 -58.5t59 -134.5t-59 -134t-136 -58t-135.5 58t-58.5 134z" />
<glyph unicode="&#xf0;" horiz-adv-x="1142" d="M47 473q0 115 37 210.5t100.5 157t145 95t172.5 33.5q133 0 209 -70l6 6q-4 7 -52.5 83t-89.5 138l-153 -47l-43 138l115 34q-83 122 -129 183h430q32 -39 53 -74l143 45l45 -135l-112 -35q79 -150 130.5 -320.5t51.5 -332.5q0 -78 -16.5 -157t-57 -161.5t-101.5 -145.5 t-158 -103t-218 -40q-221 0 -364.5 142.5t-143.5 355.5zM410 457q0 -59 37 -104.5t98 -45.5q67 0 116.5 53.5t49.5 147.5q0 59 -37.5 104t-98.5 45q-66 0 -115.5 -53.5t-49.5 -146.5z" />
<glyph unicode="&#xf1;" horiz-adv-x="1132" d="M10 0l166 965h369q-14 -71 -31 -105q56 62 131 95.5t146 33.5q152 0 233 -98t51 -275l-108 -616h-369l86 504q12 72 -15 105.5t-67 33.5q-25 0 -54 -16t-44.5 -30t-26.5 -26l-98 -571h-369zM248 1096q0 26 4 58t19 81t39.5 86.5t72 65.5t109.5 28q50 0 134.5 -37 t106.5 -37q34 0 41 31l4 21l256 -25q0 -22 -3 -47.5t-10.5 -63.5t-25 -71.5t-43 -64t-67 -48.5t-94.5 -18q-50 0 -135 33.5t-107 33.5q-34 0 -41 -30l-4 -21z" />
<glyph unicode="&#xf2;" horiz-adv-x="1105" d="M41 455q0 119 45.5 220.5t121.5 169.5t173 106t201 38q97 0 185 -34t154.5 -95t106 -152t39.5 -198q0 -119 -45.5 -220.5t-121.5 -169.5t-173 -106.5t-201 -38.5q-130 0 -240 58t-177.5 169t-67.5 253zM193 1434h458l105 -363h-346zM403 457q0 -59 37.5 -104.5 t98.5 -45.5q67 0 116.5 53.5t49.5 147.5q0 59 -37.5 104t-98.5 45q-66 0 -116 -53.5t-50 -146.5z" />
<glyph unicode="&#xf3;" horiz-adv-x="1105" d="M41 455q0 119 45.5 220.5t121.5 169.5t173 106t201 38q97 0 185 -34t154.5 -95t106 -152t39.5 -198q0 -119 -45.5 -220.5t-121.5 -169.5t-173 -106.5t-201 -38.5q-130 0 -240 58t-177.5 169t-67.5 253zM403 457q0 -59 37.5 -104.5t98.5 -45.5q67 0 116.5 53.5t49.5 147.5 q0 59 -37.5 104t-98.5 45q-66 0 -116 -53.5t-50 -146.5zM432 1071l143 363h461l-258 -363h-346z" />
<glyph unicode="&#xf4;" horiz-adv-x="1105" d="M41 455q0 119 45.5 220.5t121.5 169.5t173 106t201 38q97 0 185 -34t154.5 -95t106 -152t39.5 -198q0 -119 -45.5 -220.5t-121.5 -169.5t-173 -106.5t-201 -38.5q-130 0 -240 58t-177.5 169t-67.5 253zM199 1071l286 363h361l160 -363h-320l-47 119l-76 -119h-364z M403 457q0 -59 37.5 -104.5t98.5 -45.5q67 0 116.5 53.5t49.5 147.5q0 59 -37.5 104t-98.5 45q-66 0 -116 -53.5t-50 -146.5z" />
<glyph unicode="&#xf5;" horiz-adv-x="1105" d="M41 455q0 119 45.5 220.5t121.5 169.5t173 106t201 38q97 0 185 -34t154.5 -95t106 -152t39.5 -198q0 -119 -45.5 -220.5t-121.5 -169.5t-173 -106.5t-201 -38.5q-130 0 -240 58t-177.5 169t-67.5 253zM233 1096q0 26 4 58t19 81t39.5 86.5t72 65.5t109.5 28 q50 0 135 -37t107 -37q34 0 41 31l4 21l256 -25q0 -27 -4 -59t-19 -79.5t-39.5 -84.5t-71.5 -63.5t-110 -26.5q-50 0 -134.5 33.5t-106.5 33.5q-34 0 -41 -30l-5 -21zM403 457q0 -59 37.5 -104.5t98.5 -45.5q67 0 116.5 53.5t49.5 147.5q0 59 -37.5 104t-98.5 45 q-66 0 -116 -53.5t-50 -146.5z" />
<glyph unicode="&#xf6;" horiz-adv-x="1105" d="M41 455q0 119 45.5 220.5t121.5 169.5t173 106t201 38q97 0 185 -34t154.5 -95t106 -152t39.5 -198q0 -119 -45.5 -220.5t-121.5 -169.5t-173 -106.5t-201 -38.5q-130 0 -240 58t-177.5 169t-67.5 253zM258 1257q0 76 59 134.5t136 58.5t135.5 -58.5t58.5 -134.5 t-58.5 -134t-135.5 -58t-136 58t-59 134zM403 457q0 -59 37.5 -104.5t98.5 -45.5q67 0 116.5 53.5t49.5 147.5q0 59 -37.5 104t-98.5 45q-66 0 -116 -53.5t-50 -146.5zM684 1257q0 76 59 134.5t136 58.5t135.5 -58.5t58.5 -134.5t-58.5 -134t-135.5 -58t-136 58t-59 134z " />
<glyph unicode="&#xf7;" horiz-adv-x="1064" d="M74 532l67 377h938l-67 -377h-938zM262 266q0 95 68 160.5t162 65.5q97 0 163 -65.5t66 -160.5q1 -96 -65.5 -161.5t-163.5 -65.5q-94 0 -161.5 65.5t-68.5 161.5zM426 1178q0 95 65.5 161t159.5 66q97 0 165.5 -66t68.5 -161q-2 -95 -69.5 -161.5t-164.5 -66.5 q-94 0 -160 66.5t-65 161.5z" />
<glyph unicode="&#xf8;" horiz-adv-x="1105" d="M-27 -18l166 176q-98 125 -98 297q0 119 45.5 220.5t121.5 169.5t173 106t201 38q143 0 270 -78l66 72h215l-166 -174q100 -127 100 -299q0 -119 -45.5 -220.5t-121.5 -169.5t-173 -106.5t-201 -38.5q-153 0 -272 78l-68 -71h-213zM403 438l203 213q-18 6 -37 6 q-66 0 -116 -53.5t-50 -146.5v-19zM498 311q12 -4 41 -4q67 0 116.5 53.5t49.5 147.5q0 11 -3 20z" />
<glyph unicode="&#xf9;" horiz-adv-x="1091" d="M70 481l84 484h372l-88 -498q-11 -66 8.5 -105.5t75.5 -39.5q89 0 109 120l92 523h375l-109 -611q-14 -79 -49 -145.5t-93 -120t-147 -83.5t-200 -30q-105 0 -193 35.5t-148.5 99t-85.5 160t-3 211.5zM254 1434h459l104 -363h-346z" />
<glyph unicode="&#xfa;" horiz-adv-x="1091" d="M70 481l84 484h372l-88 -498q-11 -66 8.5 -105.5t75.5 -39.5q89 0 109 120l92 523h375l-109 -611q-14 -79 -49 -145.5t-93 -120t-147 -83.5t-200 -30q-105 0 -193 35.5t-148.5 99t-85.5 160t-3 211.5zM455 1071l143 363h461l-258 -363h-346z" />
<glyph unicode="&#xfb;" horiz-adv-x="1091" d="M70 481l84 484h372l-88 -498q-11 -66 8.5 -105.5t75.5 -39.5q89 0 109 120l92 523h375l-109 -611q-14 -79 -49 -145.5t-93 -120t-147 -83.5t-200 -30q-105 0 -193 35.5t-148.5 99t-85.5 160t-3 211.5zM211 1071l287 363h360l160 -363h-320l-47 119l-76 -119h-364z" />
<glyph unicode="&#xfc;" horiz-adv-x="1091" d="M70 481l84 484h372l-88 -498q-11 -66 8.5 -105.5t75.5 -39.5q89 0 109 120l92 523h375l-109 -611q-14 -79 -49 -145.5t-93 -120t-147 -83.5t-200 -30q-105 0 -193 35.5t-148.5 99t-85.5 160t-3 211.5zM221 1257q0 76 59 134.5t136 58.5t135.5 -58.5t58.5 -134.5 t-58.5 -134t-135.5 -58t-136 58t-59 134zM647 1257q0 76 59 134.5t136 58.5t135.5 -58.5t58.5 -134.5t-58.5 -134t-135.5 -58t-136 58t-59 134z" />
<glyph unicode="&#xfd;" horiz-adv-x="1130" d="M72 408l94 557h371l-84 -506q-8 -55 9.5 -89t67.5 -34q35 0 70 21t55 55l99 553h370l-180 -1026q-53 -301 -344 -301h-360l55 321h215q66 0 80 59l16 107q-38 -38 -106 -66t-133 -28q-158 0 -238.5 109t-56.5 268zM502 1071l143 363h461l-258 -363h-346z" />
<glyph unicode="&#xfe;" d="M-51 -362l307 1796h373l-109 -572q89 127 250 127t269 -126t108 -322q0 -126 -40.5 -234.5t-107.5 -180t-153 -111.5t-178 -40q-100 0 -167 42t-104 94l-80 -473h-368zM473 457q0 -59 37 -104.5t98 -45.5q66 0 116 54t50 147q0 59 -37 104t-98 45q-66 0 -116 -53.5 t-50 -146.5z" />
<glyph unicode="&#xff;" horiz-adv-x="1130" d="M72 408l94 557h371l-84 -506q-8 -55 9.5 -89t67.5 -34q35 0 70 21t55 55l99 553h370l-180 -1026q-53 -301 -344 -301h-360l55 321h215q66 0 80 59l16 107q-38 -38 -106 -66t-133 -28q-158 0 -238.5 109t-56.5 268zM256 1257q0 76 59 134.5t136 58.5t135.5 -58.5 t58.5 -134.5t-58.5 -134t-135.5 -58t-136 58t-59 134zM682 1257q0 76 59 134.5t136 58.5t135.5 -58.5t58.5 -134.5t-58.5 -134t-135.5 -58t-136 58t-59 134z" />
<glyph unicode="&#x152;" horiz-adv-x="2172" d="M92 645q0 125 33 240.5t100.5 215.5t163 174t229 116.5t289.5 42.5h1358l-59 -359h-740l-26 -166h364l-65 -356h-363l-33 -193h738l-60 -360h-1280q-196 0 -345.5 88t-226.5 233.5t-77 323.5zM510 647q0 -134 75 -210.5t189 -76.5h162l125 715h-178q-91 0 -164 -38.5 t-117.5 -101t-68 -137t-23.5 -151.5z" />
<glyph unicode="&#x153;" horiz-adv-x="1740" d="M41 455q0 119 44.5 220.5t118 169.5t169.5 106t200 38q92 0 174 -30.5t140 -86.5q126 117 321 117q228 0 364 -149t136 -383q0 -22 -4 -76h-660q10 -38 50 -63t82 -25q96 0 137 69l362 -79q-31 -95 -107 -166t-174.5 -106.5t-205.5 -35.5q-95 0 -184.5 29t-157.5 84 q-135 -113 -320 -113q-130 0 -240 58t-177.5 169t-67.5 253zM403 457q0 -59 37.5 -104.5t98.5 -45.5q67 0 116.5 53.5t49.5 147.5q0 59 -37.5 104t-98.5 45q-66 0 -116 -53.5t-50 -146.5zM1049 594h280q-3 46 -40 77t-89 31q-48 0 -90.5 -28.5t-60.5 -79.5z" />
<glyph unicode="&#x178;" horiz-adv-x="1368" d="M141 1434h457l158 -422h6l299 422h487l-651 -879l-98 -555h-402l97 549zM451 1726q0 76 58.5 134.5t135.5 58.5t136 -58.5t59 -134.5t-59 -134t-136 -58t-135.5 58t-58.5 134zM877 1726q0 76 58.5 134.5t135.5 58.5t136 -58.5t59 -134.5t-59 -134t-136 -58t-135.5 58 t-58.5 134z" />
<glyph unicode="&#x2c6;" horiz-adv-x="874" d="M152 1071l286 363h361l159 -363h-319l-47 119l-76 -119h-364z" />
<glyph unicode="&#x2dc;" horiz-adv-x="868" d="M143 1096q0 26 4 58t19 81t39.5 86.5t72 65.5t109.5 28q50 0 135 -37t107 -37q34 0 41 31l4 21l256 -25q0 -27 -4 -59t-19 -79.5t-39.5 -84.5t-71.5 -63.5t-110 -26.5q-50 0 -135 33.5t-107 33.5q-34 0 -41 -30l-4 -21z" />
<glyph unicode="&#x2000;" horiz-adv-x="1018" />
<glyph unicode="&#x2001;" horiz-adv-x="2036" />
<glyph unicode="&#x2002;" horiz-adv-x="1018" />
<glyph unicode="&#x2003;" horiz-adv-x="2036" />
<glyph unicode="&#x2004;" horiz-adv-x="678" />
<glyph unicode="&#x2005;" horiz-adv-x="509" />
<glyph unicode="&#x2006;" horiz-adv-x="339" />
<glyph unicode="&#x2007;" horiz-adv-x="339" />
<glyph unicode="&#x2008;" horiz-adv-x="254" />
<glyph unicode="&#x2009;" horiz-adv-x="407" />
<glyph unicode="&#x200a;" horiz-adv-x="113" />
<glyph unicode="&#x2010;" horiz-adv-x="512" d="M-18 365l57 348h512l-59 -348h-510z" />
<glyph unicode="&#x2011;" horiz-adv-x="512" d="M-18 365l57 348h512l-59 -348h-510z" />
<glyph unicode="&#x2012;" horiz-adv-x="512" d="M-18 365l57 348h512l-59 -348h-510z" />
<glyph unicode="&#x2013;" horiz-adv-x="1024" d="M68 387l53 326h860l-55 -326h-858z" />
<glyph unicode="&#x2014;" horiz-adv-x="2048" d="M68 387l53 326h1884l-55 -326h-1882z" />
<glyph unicode="&#x2018;" horiz-adv-x="618" d="M145 981q0 94 82 199l222 278l245 -92l-131 -240q53 -66 53 -149q0 -93 -65.5 -161t-163.5 -68q-102 0 -172 70t-70 163z" />
<glyph unicode="&#x2019;" horiz-adv-x="616" d="M143 840l131 239q-53 66 -53 150q0 93 66 161t164 68q102 0 171.5 -70t69.5 -163q0 -94 -82 -199l-221 -278z" />
<glyph unicode="&#x201a;" horiz-adv-x="618" d="M-47 -182l131 239q-53 66 -53 150q0 93 65.5 161t163.5 68q102 0 172 -70t70 -163q0 -94 -82 -199l-221 -278z" />
<glyph unicode="&#x201c;" horiz-adv-x="1138" d="M145 981q0 94 82 199l222 278l245 -92l-131 -240q53 -66 53 -149q0 -93 -65.5 -161t-163.5 -68q-102 0 -172 70t-70 163zM666 981q0 94 82 199l221 278l245 -92l-131 -240q54 -67 54 -149q0 -93 -66 -161t-164 -68q-102 0 -171.5 70t-69.5 163z" />
<glyph unicode="&#x201d;" horiz-adv-x="1136" d="M143 840l131 239q-53 66 -53 150q0 93 66 161t164 68q102 0 171.5 -70t69.5 -163q0 -94 -82 -199l-221 -278zM664 840l131 239q-54 67 -54 150q0 93 66 161t164 68q102 0 171.5 -70t69.5 -163q0 -94 -82 -199l-221 -278z" />
<glyph unicode="&#x201e;" horiz-adv-x="1138" d="M-47 -182l131 239q-53 66 -53 150q0 93 65.5 161t163.5 68q102 0 172 -70t70 -163q0 -94 -82 -199l-221 -278zM473 -182l131 239q-53 66 -53 150q0 93 65.5 161t163.5 68q102 0 172 -70t70 -163q0 -94 -82 -199l-221 -278z" />
<glyph unicode="&#x2022;" horiz-adv-x="774" d="M162 735q0 114 77.5 192.5t190.5 78.5q112 0 189 -78.5t77 -192.5q0 -113 -77 -190.5t-189 -77.5t-190 77.5t-78 190.5z" />
<glyph unicode="&#x2026;" horiz-adv-x="2099" d="M29 205q0 96 66.5 163.5t160.5 67.5q98 0 165.5 -67t67.5 -164q0 -96 -67.5 -163t-165.5 -67q-94 0 -160.5 67.5t-66.5 162.5zM776 205q0 96 67 163.5t161 67.5q98 0 165.5 -67t67.5 -164q0 -96 -67.5 -163t-165.5 -67q-94 0 -161 67.5t-67 162.5zM1524 205 q0 96 66.5 163.5t160.5 67.5q98 0 166 -67t68 -164q0 -96 -68 -163t-166 -67q-94 0 -160.5 67.5t-66.5 162.5z" />
<glyph unicode="&#x202f;" horiz-adv-x="407" />
<glyph unicode="&#x2039;" horiz-adv-x="786" d="M61 512l326 393h412l-320 -418l164 -421h-362z" />
<glyph unicode="&#x203a;" horiz-adv-x="794" d="M4 66l315 426l-184 413h365l239 -413l-327 -426h-408z" />
<glyph unicode="&#x205f;" horiz-adv-x="509" />
<glyph unicode="&#x20ac;" horiz-adv-x="1718" d="M78 479l37 207h98q0 24 4 64h-90l37 206h98q83 227 280 363.5t441 136.5q127 0 244 -39.5t210.5 -113.5t155 -189.5t74.5 -257.5h-459q-21 102 -78.5 154.5t-160.5 52.5q-141 0 -228 -107h306l-37 -206h-357l-6 -64h350l-36 -207h-271q67 -108 213 -108q91 0 163 56.5 t101 150.5h506q-44 -141 -125.5 -255.5t-185.5 -189.5t-225.5 -115.5t-247.5 -40.5q-247 0 -422 137.5t-231 364.5h-158z" />
<glyph unicode="&#x2122;" horiz-adv-x="2347" d="M217 1081l62 353h942l-64 -353h-289l-94 -532h-364l94 532h-287zM1147 549l158 885h462l35 -287l144 287h448l-156 -885h-366l78 448l-123 -233h-193l-49 229l-76 -444h-362z" />
<glyph unicode="&#x25fc;" horiz-adv-x="962" d="M0 0v963h963v-963h-963z" />
<glyph unicode="&#xfb01;" horiz-adv-x="1345" d="M68 639l53 326h141l41 223q26 144 111 209t243 65q103 0 244 -16l-59 -350q-74 10 -121 10q-67 0 -74 -51l-14 -90h706l-165 -965h-369l108 639h-338l-110 -639h-369l109 639h-137zM950 1264q0 91 63 154t154 63t154 -63t63 -154t-63 -154t-154 -63t-154 63t-63 154z" />
<glyph unicode="&#xfb02;" horiz-adv-x="1300" d="M68 639l53 326h141l41 223q26 144 111 209t243 65q103 0 244 -16l-59 -350q-74 10 -121 10q-67 0 -74 -51l-14 -90h289l79 469h373l-248 -1434h-368l108 639h-291l-110 -639h-369l109 639h-137z" />
<glyph unicode="&#xfb03;" horiz-adv-x="2054" d="M68 639l53 326h141l41 223q26 144 111 209t243 65q103 0 244 -16l-59 -350q-74 10 -121 10q-67 0 -74 -51l-14 -90h338l41 223q26 144 111 209t243 65q103 0 244 -16l-60 -350q-73 10 -120 10q-67 0 -74 -51l-15 -90h707l-166 -965h-369l109 639h-338l-110 -639h-369 l108 639h-338l-110 -639h-369l109 639h-137zM1659 1264q0 91 63 154t154 63t154 -63t63 -154t-63 -154t-154 -63t-154 63t-63 154z" />
<glyph unicode="&#xfb04;" horiz-adv-x="2027" d="M68 639l53 326h141l41 223q26 144 111 209t243 65q103 0 244 -16l-59 -350q-74 10 -121 10q-67 0 -74 -51l-14 -90h323l41 223q26 144 111.5 209t243.5 65q102 0 243 -16l-59 -350q-74 10 -121 10q-67 0 -74 -51l-14 -90h322l80 469h372l-248 -1434h-368l108 639h-323 l-111 -639h-368l108 639h-324l-110 -639h-369l109 639h-137z" />
</font>
</defs>
</svg>
